<svg xmlns="http://www.w3.org/2000/svg" width="324" height="268" viewBox="0 0 324 268"><defs><clipPath id="ext0a"><path d="M209.52 204.71c2.092-8.864 3.18-17.941-1.569-23.98-2.145-2.728-5.96-4.626-9.084-5.98-6.097-2.637-12.323-6.175-18.848-7.322-6.88-1.211-14.526-1.957-21.381-.227-4.354 1.102-8.43 3.137-12.323 5.333-3.376 1.905-7.523 3.544-9.162 7.088a241.002 241.002 0 0 0-10.425 26.552c-2.449 7.529-5.138 15.42-1.276 23.053 1.25 2.475 3.064 4.587 4.496 6.952 1.594 2.63 2.184 5.105 2.397 8.138.48 6.926 1.964 8.481 1.944 15.42-.006 2.002 6.389-.33 7.263 1.464 1.724 3.545 6.285-2.857 9.66-2.863 11.132-.02 16.924.324 28.056.304 4.632-.006 3.052.881 7.399 1.776 3.66.751 2.643 3.408 4.4 0 1.665-3.227 8.506 4.081 8.681.46a229.13 229.13 0 0 1 5.968-41.85c.92-3.887 2.54-8.973 3.803-14.318z"/></clipPath><clipPath id="ext0b"><path d="M209.52 204.71c2.092-8.864 3.18-17.941-1.569-23.98-2.145-2.728-5.96-4.626-9.084-5.98-6.097-2.637-12.323-6.175-18.848-7.322-6.88-1.211-14.526-1.957-21.381-.227-4.354 1.102-8.43 3.137-12.323 5.333-3.376 1.905-7.523 3.544-9.162 7.088a241.002 241.002 0 0 0-10.425 26.552c-2.449 7.529-5.138 15.42-1.276 23.053 1.25 2.475 3.064 4.587 4.496 6.952 1.594 2.63 2.184 5.105 2.397 8.138.48 6.926 1.964 8.481 1.944 15.42-.006 2.002 6.389-.33 7.263 1.464 1.724 3.545 6.285-2.857 9.66-2.863 11.132-.02 16.924.324 28.056.304 4.632-.006 3.052.881 7.399 1.776 3.66.751 2.643 3.408 4.4 0 1.665-3.227 8.506 4.081 8.681.46a229.13 229.13 0 0 1 5.968-41.85c.92-3.887 2.54-8.973 3.803-14.318z"/></clipPath></defs><g><g><g><g><path fill="#f5f5fe" d="M224.622 255.882l-.285-.492c8.177-4.77 17.701-5.138 26.915-5.495 3.77-.149 7.671-.298 11.377-.758 17.332-2.145 30.109-13.308 34.171-29.856 3.713-15.097-.434-31.25-10.813-42.16-.525-.55-1.063-1.114-1.588-1.652-3.609-3.752-7.34-7.633-9.997-12.2a26.269 26.269 0 0 1-3.285-9.337c-.467-3.065-.415-6.304.149-9.622 1.01-5.98 3.667-12.161 7.684-17.882a242.569 242.569 0 0 1 3.266-4.497c3.473-4.704 7.068-9.57 9.343-15.142 2.727-6.66 3.362-15.193 1.794-24.018-2.559-14.397-10.677-27.362-21.718-34.67-14.325-9.486-29.474-7.425-45.51-5.242-6.686.914-13.554 1.847-20.344 1.847-1.763 0-3.525-.065-5.274-.208a49.819 49.819 0 0 1-9.227-1.639 49.937 49.937 0 0 1-8.818-3.35c-5.857-2.883-10.943-6.796-15.096-11.623-11.942-13.853-28.27-21.46-43.955-21.46-6.816 0-13.51 1.433-19.671 4.42-12.401 6-22.593 17.39-27.951 31.249-3.052 7.885-3.667 16.444-4.257 24.718-.557 7.755-1.134 15.77-3.68 23.35a48.308 48.308 0 0 1-6.162 12.182c-2.767 3.952-5.96 7.217-9.472 9.712-9.538 6.764-16.024 13.256-20.41 20.435-6.337 10.367-7.75 22.639-3.693 32.027 2.903 6.719 8.546 11.015 13.995 15.168 2.831 2.157 5.76 4.386 8.248 6.92 2.793 2.85 4.73 5.798 5.909 9.012.978 2.663 1.445 5.74 1.425 9.42-.019 4.29-.81 8.683-1.58 12.927-1.303 7.205-2.65 14.662-.227 21.796 1.58 4.665 5.559 8.053 11.824 10.075 4.4 1.419 9.784 2.151 16.464 2.248 1.976.026 3.998.013 5.96-.006 7.717-.065 15.7-.13 23.04 2.5l-.194.538c-7.243-2.598-15.174-2.527-22.839-2.462-1.963.02-3.991.033-5.974.007-6.738-.097-12.18-.843-16.632-2.274-6.446-2.08-10.548-5.585-12.187-10.432-2.469-7.276-1.108-14.798.207-22.081.765-4.224 1.549-8.591 1.568-12.829.013-3.609-.44-6.628-1.393-9.226-2.566-6.998-8.105-11.21-13.962-15.673-5.514-4.199-11.21-8.54-14.177-15.401a28.827 28.827 0 0 1-2.151-8.138c-.317-2.721-.279-5.56.11-8.436.739-5.488 2.734-11.015 5.773-15.984 4.425-7.244 10.963-13.794 20.565-20.604 6.803-4.827 12.427-12.706 15.427-21.608 2.527-7.51 3.104-15.492 3.654-23.209.596-8.319 1.218-16.923 4.296-24.886 5.41-13.995 15.706-25.496 28.236-31.56 5.385-2.605 11.17-4.095 17.209-4.438 5.702-.318 11.54.388 17.358 2.105 11.19 3.305 21.75 10.237 29.733 19.51 8.086 9.387 20.027 15.374 32.758 16.417 8.417.687 17.1-.492 25.49-1.639 7.723-1.05 15.705-2.138 23.396-1.743 4.147.214 7.879.83 11.416 1.886a40.866 40.866 0 0 1 11.093 5.19c5.533 3.66 10.483 8.87 14.319 15.064a57.212 57.212 0 0 1 7.645 19.981c.752 4.212 1.01 8.359.771 12.324-.266 4.4-1.134 8.442-2.598 12.012-2.307 5.637-5.916 10.529-9.414 15.265-1.082 1.465-2.203 2.98-3.26 4.484-8.76 12.492-10.45 26.04-4.515 36.231 2.624 4.503 6.33 8.365 9.913 12.09.525.545 1.062 1.102 1.587 1.66 5.197 5.455 8.954 12.355 10.866 19.942 1.879 7.477 1.918 15.336.097 22.742-1.03 4.18-2.624 8.086-4.75 11.598a38.177 38.177 0 0 1-7.677 9.116c-6.02 5.203-13.703 8.514-22.224 9.57-3.725.46-7.639.615-11.422.758-9.162.376-18.615.745-26.669 5.436z"/></g></g><g><path fill="#f2ffcf" d="M39.564 122.035c-6.998 9.952-12.402 23.494-8.65 35.992 3.738 12.46 15.686 20.144 20.908 31.975 2.955 6.686 3.033 14.046 3.143 21.225.149 9.402-1.691 19.38 4.665 27.323 3.758 4.698 9.427 7.477 15.161 9.298 11.514 3.66 22.38-5.993 32.61.926 16.8 11.365 30.51 1.082 50.53-.149 10.154-.622 30 6.629 39.725 3.661 11.3-3.447 19.703 6.913 31.08 3.641 19.723-5.669 46.69-5.747 58.229-25.703 7.768-13.43 10.464-30.037 4.419-44.674-2.877-6.958-8.358-12.278-11.481-19.107-4.316-9.44-5.482-20.202-2.599-30.232.117-.414.247-.822.376-1.23 3.013-9.376 9.078-17.436 11.585-26.98 5.177-19.703-6.265-40.54-21.31-53.207-6.252-5.261-13.237-9.641-20.844-12.142-20.98-6.887-44.291 1.082-65.342-5.579-16.146-5.112-29.403-18.394-45.853-22.236-12.641-2.955-26.306.2-37.042 7.917s-18.53 19.794-22.081 33.09c-3.291 12.323-3.188 25.858-9.025 37.048-4.996 9.576-14.248 14.746-21.764 21.692-2.346 2.17-4.51 4.697-6.44 7.45z"/></g><g/><g><path fill="#eaf7c9" d="M289.504 22.877c.188-1.127-1.308-3.401-2.935-3.369-.648.013-1.282.182-1.93.15-1.724-.085-2.618-1.426-3.279-2.54-.667-1.108-1.989-2.378-3.667-2.1-2.417.408-3.635 3.596-6.389 1.199-1.8-1.568-1.937-3.758-3.971-5.28-1.4-1.044-3.674-1.666-5.546-1.09-2.45.752-3.357 3.182-5.961 3.603-2.884.467-4.963-1.73-5.883-3.31-1.121-1.925-1.536-3.998-2.488-5.955-.888-1.808-2.67-4.237-5.864-4.18-2.702.046-3.887 1.757-5.216 3.11-1.723 1.763-5.306 8.106-9.323 7.342-1.568-.298-2.352-1.542-3.765-2.1-2.274-.894-5.17.337-6.537 1.886s-1.912 3.421-3.46 4.885c-.402.383-.888.739-1.516.907-2.164.59-4.173-1.224-6.486-1.36-1.594-.09-3.078.654-3.997 1.574-.92.914-1.42 1.996-2.12 3-.193.279-.414.564-.77.752-1.017.544-2.443.084-3.687-.13-3.07-.531-6.563.881-7.432 3h102.222z"/></g><g><path fill="#eaf7c9" d="M61.962 70.694c.097-.577-.674-1.75-1.51-1.73-.33.006-.66.09-.99.078-.888-.046-1.348-.733-1.685-1.303-.344-.57-1.024-1.224-1.886-1.075-1.244.207-1.872 1.846-3.285.615-.926-.803-.991-1.93-2.04-2.715-.72-.537-1.886-.855-2.852-.557-1.256.389-1.723 1.633-3.064 1.853-1.484.24-2.553-.887-3.026-1.704-.577-.985-.79-2.054-1.283-3.058-.453-.933-1.373-2.177-3.013-2.151-1.386.026-2.002.9-2.682 1.6-.888.908-2.728 4.167-4.795 3.771-.803-.155-1.205-.79-1.937-1.082-1.166-.46-2.656.175-3.363.972-.706.797-.984 1.756-1.775 2.508-.207.194-.453.375-.777.466-1.108.305-2.145-.628-3.337-.7-.823-.045-1.581.337-2.054.81-.473.473-.732 1.024-1.089 1.542-.103.143-.213.292-.395.389-.525.279-1.257.045-1.898-.065-1.581-.272-3.376.454-3.816 1.542h52.552z"/></g><g><g><g><g><g><path fill="#0097a4" d="M302.73 155.694v106.349H279.1v-106.35z"/></g><g><path fill="#0097a4" d="M243.45 262.044V188.33h35.656v73.714z"/></g><g><path fill="#0097a4" d="M288.345 262.044v-51.769H324v51.769z"/></g><g><path fill="#0097a4" d="M298.29 150.494v5.196h-19.184v-5.196z"/></g><g><path fill="#0097a4" d="M294.802 145.294v5.196h-15.699v-5.196z"/></g><g><path fill="#0097a4" d="M291.472 140.1v5.196h-12.369V140.1z"/></g></g><g><g><path fill="#0097a4" d="M209.458 155.694v106.349h-23.63v-106.35z"/></g><g><path fill="#0097a4" d="M274.088 121.261v140.78h-23.63v-140.78z"/></g><g><path fill="#0097a4" d="M185.831 220.884v41.155h-47.253v-41.155z"/></g><g><path fill="#0097a4" d="M245.113 104.648v157.393h-47.467V104.648z"/></g><g><path fill="#0097a4" d="M205.018 150.494v5.196h-19.185v-5.196z"/></g><g><path fill="#0097a4" d="M201.53 145.294v5.196h-15.7v-5.196z"/></g><g><path fill="#0097a4" d="M198.2 140.1v5.196h-12.37V140.1z"/></g></g></g><g><g><g><path fill="#0097a4" d="M164.193 155.694v106.349h-23.63v-106.35z"/></g><g><path fill="#0097a4" d="M164.19 262.037v-88.37h23.63v88.37z"/></g><g><path fill="#0097a4" d="M104.913 262.037v-130.2h35.655v130.2z"/></g><g><path fill="#0097a4" d="M159.753 150.494v5.196h-19.185v-5.196z"/></g><g><path fill="#0097a4" d="M156.264 145.294v5.196h-15.699v-5.196z"/></g><g><path fill="#0097a4" d="M152.934 140.1v5.196h-12.368V140.1z"/></g></g><g><g><path fill="#0097a4" d="M70.92 155.694v106.349H47.29v-106.35z"/></g><g><path fill="#0097a4" d="M47.297 173.671v88.37h-23.63v-88.37z"/></g><g><path fill="#0097a4" d="M100.109 158.917V262.04h-23.63V158.917z"/></g><g><path fill="#0097a4" d="M23.667 210.706v51.335H.037v-51.335z"/></g><g><path fill="#0097a4" d="M106.575 184.387v77.653H59.108v-77.653z"/></g><g><path fill="#0097a4" d="M66.48 150.494v5.196H47.295v-5.196z"/></g><g><path fill="#0097a4" d="M40.95 239.515v5.196H21.765v-5.196z"/></g><g><path fill="#0097a4" d="M62.992 145.294v5.196h-15.7v-5.196z"/></g><g><path fill="#0097a4" d="M59.662 140.1v5.196H47.293V140.1z"/></g></g><g><path fill="#0097a4" d="M180.362 183.633v5.196h-31.061v-5.196z"/></g><g><path fill="#0097a4" d="M180.362 202.26v5.196h-31.061v-5.196z"/></g><g><path fill="#0097a4" d="M180.362 220.887v5.197h-31.061v-5.197z"/></g><g><path fill="#0097a4" d="M61.313 220.887v5.197H30.252v-5.197z"/></g><g><path fill="#0097a4" d="M61.313 239.515v5.196H30.252v-5.196z"/></g></g></g><g><path fill="#0b2d4e" d="M222.814 215.815c-8.915 3.155-19.67 2.831-27.789-2.372-7.976-5.118-15.245-8.812-25.055-8.63-8.766.162-16.023 4.898-24.517 5.909-6.738.797-13.58-2.138-18.46-6.848-4.768-4.6-7.93-11.611-5.856-17.896 1.082-3.291 3.453-6.013 4.807-9.2 3.123-7.36-5.099-11.806-3.051-19.555 1.736-6.589 8.967-11.293 8.863-18.109-.078-4.989-3.94-8.857-5.3-13.47-1.373-4.659-1.069-9.874 1.354-14.125 1.775-3.123 4.633-5.682 7.95-7.095 2.974-1.27 6.298-1.289 8.598-3.887 4.095-4.633 5.598-9.647 11.222-13.036 4.762-2.864 11.047-3.045 16.509-2.546 12.136 1.114 23.908 7.515 30.744 17.72 2.423 3.616 4.172 7.315 4.23 11.61.065 4.698.065 9.422 2.942 13.413 2.417 3.35 6.291 5.313 10.14 6.829 3.849 1.51 7.879 2.734 11.254 5.118 3.376 2.385 6.059 6.272 5.663 10.387-.33 3.44-2.715 6.433-3.032 9.88-.577 6.266 5.455 10.814 9.175 15.88 5.209 7.102 6.07 17.145 2.15 25.03-4.515 9.077-12.711 11.125-21.303 14.54-.415.155-.823.31-1.238.453z"/></g><g><g><path fill="#73b8d4" d="M157.977 98.723c2.948-1.724 6.376-2.514 9.784-2.65 3.415-.13 6.842.31 10.16 1.134 6.653 1.678 12.718 5.637 16.942 11.085 2.086 2.741 3.707 5.858 4.666 9.182.965 3.336 1.16 6.822 1.12 10.23-.032 3.421-.278 6.816-.162 10.186.072 1.671.279 3.336.784 4.891.5 1.555 1.367 2.987 2.65 3.92 1.264.96 2.89 1.367 4.536 1.562 1.645.194 3.369.207 5.086.434 3.402.46 6.855 1.263 9.816 3.214 1.458.971 2.766 2.325 3.401 4.036.661 1.71.525 3.576.084 5.28-.511 1.724-1.49 3.169-2.17 4.678-.68 1.51-1.12 3.13-1.263 4.782-.311 3.324.537 6.66 1.723 9.816 1.16 3.182 2.56 6.317 3.37 9.66.401 1.666.64 3.383.615 5.106a16.141 16.141 0 0 1-.894 5.054 17.287 17.287 0 0 1-5.955 8.15 17.198 17.198 0 0 0 5.728-8.228c1.075-3.227.933-6.725.045-9.965-.848-3.272-2.267-6.369-3.486-9.556-1.23-3.169-2.177-6.596-1.892-10.095.136-1.737.57-3.454 1.27-5.054.713-1.594 1.659-3.02 2.106-4.58.395-1.575.499-3.253-.084-4.737-.564-1.49-1.73-2.708-3.084-3.609-2.76-1.808-6.13-2.605-9.434-3.026-1.659-.213-3.35-.213-5.086-.414-1.71-.201-3.525-.616-5.002-1.73-1.484-1.089-2.443-2.728-2.974-4.406-.538-1.685-.745-3.428-.81-5.158-.097-3.44.162-6.842.208-10.23.051-3.376-.13-6.771-1.044-9.998a28.17 28.17 0 0 0-4.45-8.96c-4.05-5.365-9.946-9.33-16.471-11.08-3.259-.894-6.648-1.406-10.036-1.354-3.389.078-6.81.778-9.797 2.43z"/></g></g><g><path fill="#061f33" d="M200.902 174.205c.317 7.698-1.464 13.477-8.507 17.28-5.605 3.033-12.317 4.024-18.505 4.18-10.373.252-21.938-2.424-29.694-9.707-1.406-1.321-2.76-2.94-2.864-4.872-.09-1.756.875-3.408.96-5.164.142-2.96-2.158-5.41-3.188-8.19-1.361-3.667-.435-7.762.783-11.48 1.219-3.72 2.748-7.471 2.566-11.378-.24-5.067-3.285-9.492-5.72-13.943-2.437-4.451-4.361-9.868-2.275-14.494 1.374-3.052 4.646-5.39 7.995-5.766 3.538-.396 6.713 3.647 8.98 5.876a55.402 55.402 0 0 0 10.095 7.853c5.054 3.065 10.6 5.326 15.35 8.838 2.876 2.125 5.96 5.04 7.334 8.429 1.548 3.816-1.16 7.51 2.112 11.02 2.112 2.262 5.358 3.033 7.91 4.79 5.47 3.744 6.422 10.657 6.668 16.728z"/></g><g><path fill="#8daa21" d="M143.606 217.273c7.283-11.229 11.818-25.004 5.488-37.677-.641-1.283-1.412-2.689-2.773-3.142-2.928-.972-6.907.07-9.453 1.568-8.838 5.183-14.248 14.947-19.21 23.63-5.158 9.018-9.642 18.413-14.825 27.419-2.1 3.648-4.218 7.348-5.345 11.403-.985 3.551-1.095 7.62.252 11.1 5.819 15.024 21.822-3.383 26.694-8.942a224.406 224.406 0 0 0 19.172-25.36z"/></g><g><g><path fill="#95c81f" d="M209.52 204.71c2.092-8.864 3.18-17.941-1.569-23.98-2.145-2.728-5.96-4.626-9.084-5.98-6.097-2.637-12.323-6.175-18.848-7.322-6.88-1.211-14.526-1.957-21.381-.227-4.354 1.102-8.43 3.137-12.323 5.333-3.376 1.905-7.523 3.544-9.162 7.088a241.002 241.002 0 0 0-10.425 26.552c-2.449 7.529-5.138 15.42-1.276 23.053 1.25 2.475 3.064 4.587 4.496 6.952 1.594 2.63 2.184 5.105 2.397 8.138.48 6.926 1.964 8.481 1.944 15.42-.006 2.002 6.389-.33 7.263 1.464 1.724 3.545 6.285-2.857 9.66-2.863 11.132-.02 16.924.324 28.056.304 4.632-.006 3.052.881 7.399 1.776 3.66.751 2.643 3.408 4.4 0 1.665-3.227 8.506 4.081 8.681.46a229.13 229.13 0 0 1 5.968-41.85c.92-3.887 2.54-8.973 3.803-14.318z"/></g><g><g><path d="M209.52 204.71c2.092-8.864 3.18-17.941-1.569-23.98-2.145-2.728-5.96-4.626-9.084-5.98-6.097-2.637-12.323-6.175-18.848-7.322-6.88-1.211-14.526-1.957-21.381-.227-4.354 1.102-8.43 3.137-12.323 5.333-3.376 1.905-7.523 3.544-9.162 7.088a241.002 241.002 0 0 0-10.425 26.552c-2.449 7.529-5.138 15.42-1.276 23.053 1.25 2.475 3.064 4.587 4.496 6.952 1.594 2.63 2.184 5.105 2.397 8.138.48 6.926 1.964 8.481 1.944 15.42-.006 2.002 6.389-.33 7.263 1.464 1.724 3.545 6.285-2.857 9.66-2.863 11.132-.02 16.924.324 28.056.304 4.632-.006 3.052.881 7.399 1.776 3.66.751 2.643 3.408 4.4 0 1.665-3.227 8.506 4.081 8.681.46a229.13 229.13 0 0 1 5.968-41.85c.92-3.887 2.54-8.973 3.803-14.318z"/></g><g clip-path="url(#ext0a)"><path fill="#8daa21" d="M183.732 178.922c2.618-4.406 3.214-9.92-.214-14.163-1.568-1.944-4.347-2.158-6.719-2.203a56.804 56.804 0 0 0-13.91 1.47c-4.335 1.018-8.76 2.735-10.64 7.115-1.392 3.252-.906 7.017.934 9.997a12.327 12.327 0 0 0 7.535 5.443c4.99 1.185 10.833 1.03 15.595-.972 2.981-1.257 5.663-3.726 7.42-6.687z"/></g></g><g><g><path d="M209.52 204.71c2.092-8.864 3.18-17.941-1.569-23.98-2.145-2.728-5.96-4.626-9.084-5.98-6.097-2.637-12.323-6.175-18.848-7.322-6.88-1.211-14.526-1.957-21.381-.227-4.354 1.102-8.43 3.137-12.323 5.333-3.376 1.905-7.523 3.544-9.162 7.088a241.002 241.002 0 0 0-10.425 26.552c-2.449 7.529-5.138 15.42-1.276 23.053 1.25 2.475 3.064 4.587 4.496 6.952 1.594 2.63 2.184 5.105 2.397 8.138.48 6.926 1.964 8.481 1.944 15.42-.006 2.002 6.389-.33 7.263 1.464 1.724 3.545 6.285-2.857 9.66-2.863 11.132-.02 16.924.324 28.056.304 4.632-.006 3.052.881 7.399 1.776 3.66.751 2.643 3.408 4.4 0 1.665-3.227 8.506 4.081 8.681.46a229.13 229.13 0 0 1 5.968-41.85c.92-3.887 2.54-8.973 3.803-14.318z"/></g><g clip-path="url(#ext0b)"><path fill="#8daa21" d="M213.465 245.36c-.032-6.797-.071-13.6-.104-20.397-.012-2.365 1.523-16.774-2.157-16.612-.395.02-.758.22-1.082.453-1.834 1.309-2.773 3.505-3.628 5.585-2.683 6.531-4.938 16.989-10.523 21.557-5.675 4.645-14.41 6.608-21.465 7.723-8.242 1.302-16.613 1.4-24.945 1.904-5.384.331-11.326 1.102-14.87 5.177-2.527 2.91-3.816 7.27-5.164 10.827-1.179 3.104-2.118 6.797.272 9.609 1.024 1.198 2.437 1.989 3.862 2.663 5.196 2.449 10.878 3.686 16.541 4.632 15.855 2.657 32.02 3.208 48.082 2.443 3.434-.162 7.16-.505 9.693-2.831 1.886-1.73 2.773-4.277 3.402-6.752 2.164-8.436 2.131-17.267 2.086-25.981z"/></g></g></g><g><path fill="#0e7d7f" d="M137.53 129.253c-6.078 6.252-.565 21.524 9.122 19.314 10.412-2.378 8.844-18.602-.57-21.265-3.668-1.036-6.596-.064-8.553 1.95z"/></g><g><path fill="none" stroke="#0b2d4e" stroke-miterlimit="20" stroke-width="15" d="M220.462 214.791c6.091.777 12.506.24 17.941-2.605 6.927-3.621 10.386-10.27 10.529-17.908.104-5.54-.965-11.306-4.309-15.725-3.634-4.801-9.725-7.756-11.986-13.334-1.464-3.616-1.115-8.533 1.782-11.332 1.84-1.782 3.285-3.79 3.045-6.46-.35-3.927-3.22-7.697-6.428-9.823-4.703-3.11-10.554-4.25-16.061-4.943-3.726-.473-7.445-1.523-8.598-5.54-.622-2.164-.5-4.451-.616-6.68-.246-4.75-.596-9.499-1.302-14.202-.817-5.423-4.341-10.665-8.267-14.404a28.493 28.493 0 0 0-1.756-1.542c-10.127-8.202-28.865-11.105-40.035-3.505-3.81 2.592-6.473 6.557-7.322 11.092-.57 3.033-1.386 3.68-4.347 4.6-5.378 1.672-11.482 2.852-15.751 6.797-3.344 3.084-4.88 7.762-4.432 12.246.57 5.721 4.568 8.462 7.438 12.997 2.922 4.633.628 10.458-2.773 14.28-2.618 2.942-6.33 5.093-7.808 8.74-1.36 3.357-.46 7.238 1.186 10.471.668 1.309 1.452 2.56 2.035 3.9 1.788 4.096 1.607 9-.486 12.946"/></g><g><path fill="#95c81f" d="M237.723 223.648a945.378 945.378 0 0 1 5.534 10.108c3.686 6.874 10.534 22.139-.428 25.916-5.527 1.899-8.682.046-12.336-3.984a232.811 232.811 0 0 1-34.93-50.603c-3.473-6.816-12.699-24.575-1.497-28.631 3.538-1.283 7.614-.985 10.931.797 1.516.816 2.857 1.911 4.14 3.058 8.086 7.211 13.846 16.515 18.965 25.949 3.175 5.838 6.414 11.604 9.621 17.39z"/></g><g><path fill="#f8a17a" d="M174.24 181.17c3.337-1.069 6.084-3.142 7.114-6.44.933-2.993-.537-6.356-.803-9.375a56.554 56.554 0 0 1-.09-8.702c.174-2.676.433-5.468.019-8.138-.234-1.529-1.07-1.263-2.618-1.872-1.542-.61-3.272-.61-4.95-.61-3.434.007-12.388-.239-14.507 2.774-.972 1.387-1.05 3.123-1.095 4.768-.058 1.99-.408 4.562-.732 7.341-.143 1.238-.058 2.469-.246 3.694-.214 1.373-.732 2.689-1.193 4.004-1.73 4.976-.11 9.706 5.275 11.986 3.855 1.633 9.368 1.996 13.826.57z"/></g><g><path fill="#e5785c" d="M180.46 148.509c-.233-1.53-1.07-1.263-2.618-1.873-1.542-.609-3.272-.609-4.95-.609-3.434.007-12.388-.24-14.507 2.773-.971 1.387-1.05 3.123-1.094 4.77-.06 1.988-.409 4.56-.733 7.34-.142 1.237-.058 2.468-.246 3.693-.162 1.043-.505 2.06-.855 3.065 3.33 1.237 7.088 1.51 10.56.654 6.26-1.542 10.996-5.436 14.372-10.496.02-.395.026-.79.051-1.18.175-2.675.435-5.461.02-8.137z"/></g><g><path fill="#f8a17a" d="M185.449 128.903c-.026-4.587-.661-8.935-1.84-12.55-5.093-15.583-24.53-19.438-36.238-8.248-13.056 12.479-8.06 42.309 5.695 52.785 3.673 2.8 8.675 3.785 13.14 2.586 13.502-3.616 19.327-20.241 19.243-34.573z"/></g><g><path fill="#f8a17a" d="M182.896 129.291c5.98-3.271 7.82 5.01 6.797 9.136-.428 1.704-1.095 3.363-2.151 4.762-1.426 1.886-5.495 5.015-7.84 2.955-1.063-.94-1.173-2.527-1.205-3.946-.097-3.803.343-10.69 4.4-12.907z"/></g><g><g><path fill="#13b3b7" d="M163.407 156.57c-1.464 0-2.942-.111-4.419-.325l.266-1.795c5.371.791 10.723.046 15.485-2.164 1.296-.596 2.39-1.23 3.35-1.924a15.864 15.864 0 0 0 4.34-4.782l1.569.914a17.657 17.657 0 0 1-4.84 5.339c-1.056.764-2.255 1.451-3.654 2.1-3.771 1.748-7.886 2.636-12.097 2.636z"/></g></g><g><g><path fill="#13b3b7" d="M153.746 153.025c2.19-1.88 7.05-1.717 8.657.233 1.185 1.445.822 3.279-.486 4.496-1.549 1.446-3.46 1.361-5.39.927-2.418-.55-5.418-3.395-2.78-5.656z"/></g></g><g><path fill="#e5785c" d="M185.481 117.001c-5.358-16.412-25.825-20.461-38.156-8.682-2.72 2.604-4.69 5.928-5.993 9.66.272.428.583.85.953 1.277 1.69 1.956 4.023 3.24 6.375 4.321 6.862 3.175 14.261 5.035 21.686 6.428.544.103 1.095.2 1.646.31 2.047.402 4.075.908 5.863 1.964 5.048 2.974 2.877 9.524 6.577 12.395.337.259.674.427 1.01.544 1.368-4.885 2.009-10.075 1.977-15.006-.033-4.827-.7-9.408-1.938-13.211z"/></g><g><path fill="#0b2d4e" d="M172.517 128.443c1.956.726 3.88 1.548 5.475 2.87 4.509 3.745 1.321 9.862 4.516 13.282 2.83 3.033 7.127-.971 8.254-3.777 2.073-5.157 1.95-10.898 1.801-16.457-.084-3.097-.175-6.246-1.088-9.207-.992-3.233-2.922-6.123-5.223-8.604-6.64-7.166-16.657-10.885-26.357-10.276-7.587.48-20.889 6.855-14.947 16.509 1.354 2.203 3.46 3.842 5.604 5.287 6.266 4.224 13.27 7.244 20.384 9.803.531.188 1.056.376 1.58.57z"/></g><g><path fill="#0e7d7f" d="M185.404 126.933c-8.443 2.164-11.708 18.07-2.288 21.24 10.12 3.4 17.248-11.255 10.6-18.44-2.585-2.8-5.591-3.493-8.312-2.8z"/></g><g><path fill="#13b3b7" d="M188.17 128.974c-5.831.94-9.42 13.321-3.414 16.73 6.453 3.66 12.511-7.368 8.714-13.717-1.477-2.475-3.42-3.31-5.3-3.013z"/></g><g><g><path fill="#0e7d7f" d="M189.35 128.048l-2.255-.26c1.53-13.198.874-30.07-10.898-35.454-5.579-2.553-21.544-5.384-28.573 4.102a25.194 25.194 0 0 0-1.413 1.742c4.36-13.45 24.906-10.664 30.925-7.91 13.017 5.96 13.827 23.83 12.214 37.78z"/></g></g><g><g><path fill="#0e7d7f" d="M100.734 261.318v-9.025h46.086v9.025z"/></g><g><g><path fill="#0e7d7f" d="M108.645 253.167l-11.63-59.213a3.338 3.338 0 0 0-3.272-2.695H16.42c-1.12 0-2.08.55-2.682 1.373l-.013-.013-3.57 4.225 3.168-.694 11.455 58.3a3.338 3.338 0 0 0 3.272 2.695h77.323c2.099 0 3.673-1.918 3.272-3.978z"/></g><g><path fill="#0b2d4e" d="M24.512 261.318h77.323c2.1 0 3.68-1.918 3.272-3.978l-11.63-59.214a3.338 3.338 0 0 0-3.272-2.695H12.882c-2.099 0-3.68 1.918-3.272 3.978l11.63 59.214a3.332 3.332 0 0 0 3.272 2.695z"/></g><g><path fill="#0e7d7f" d="M48.835 226.907c.713 3.991 4.53 7.23 8.527 7.23 3.991 0 6.609-3.239 5.838-7.23-.771-3.991-4.588-7.23-8.527-7.23-3.94 0-6.55 3.232-5.838 7.23z"/></g></g><g/></g><g><g><g><g><path fill="#fff" d="M270.89 225.961c.855-1.762.7-3.615.162-5.293-.518-1.718-1.438-3.195-2.436-4.815-1.01-1.593-2.041-3.33-2.67-5.423-.641-2.118-.46-4.49.13-6.492 1.27-4.094 3.875-7.107 5.663-10.192.9-1.561 1.632-3.148 1.924-4.898.324-1.736.214-3.59-.641-5.332 1.477 1.296 2.196 3.395 2.293 5.43.091 2.053-.427 4.14-1.211 5.967-1.555 3.712-3.888 6.732-4.795 9.997-.512 1.613-.641 3.182-.278 4.743.304 1.607 1.147 3.227 1.898 4.983.804 1.716 1.568 3.7 1.736 5.74.182 2.002-.278 4.27-1.775 5.585z"/></g></g></g><g><g><g><path fill="#0e7d7f" d="M277.11 261.123H266.25a6.057 6.057 0 0 1-6.058-6.057v-26.857h22.981v26.857a6.058 6.058 0 0 1-6.064 6.057z"/></g><g><path fill="#0e7d7f" d="M284.775 252.293c-3.544 0-6.42-2.916-6.42-6.512 0-3.596 2.876-6.512 6.42-6.512s6.42 2.916 6.42 6.512c0 3.596-2.876 6.512-6.42 6.512zm0-16.639c-5.507 0-9.978 4.536-9.978 10.127 0 5.592 4.464 10.127 9.978 10.127 5.507 0 9.978-4.535 9.978-10.127 0-5.591-4.464-10.127-9.978-10.127z"/></g><g opacity=".2"><path fill="#fff" d="M263.627 248.632c-.68 0-1.244-.557-1.244-1.244v-16.017c0-.68.557-1.244 1.244-1.244.68 0 1.244.557 1.244 1.244v16.017c0 .687-.557 1.244-1.244 1.244z"/></g><g><path fill="#13b3b7" d="M277.868 228.21v27.096a5.818 5.818 0 0 1-5.818 5.817h5.307a5.818 5.818 0 0 0 5.818-5.817v-27.097z"/></g></g></g></g><g><g><path fill="#13b3b7" d="M223.281 108.098h77.983c4.445 0 8.08-3.635 8.08-8.08V59.013c0-4.445-3.635-8.08-8.08-8.08h-77.983c-4.445 0-8.08 3.635-8.08 8.08v41.007c0 4.438 3.635 8.08 8.08 8.08z"/></g><g><path fill="#13b3b7" d="M227.596 123.143V96.87l20.572 11.228z"/></g><g><path fill="#e1f4fd" d="M273.65 82.084h-41.616a2.5 2.5 0 0 1-2.494-2.494 2.5 2.5 0 0 1 2.494-2.495h41.616a2.5 2.5 0 0 1 2.495 2.495 2.5 2.5 0 0 1-2.495 2.494z"/></g><g><path fill="#e1f4fd" d="M292.511 82.084h-10.289a2.5 2.5 0 0 1-2.494-2.494 2.5 2.5 0 0 1 2.494-2.495h10.289a2.5 2.5 0 0 1 2.495 2.495 2.5 2.5 0 0 1-2.495 2.494z"/></g><g><path fill="#e1f4fd" d="M250.895 65.77h41.616a2.5 2.5 0 0 1 2.494 2.494 2.5 2.5 0 0 1-2.494 2.495h-41.616a2.5 2.5 0 0 1-2.494-2.495 2.504 2.504 0 0 1 2.494-2.494z"/></g><g><path fill="#e1f4fd" d="M232.034 65.77h10.289a2.5 2.5 0 0 1 2.495 2.494 2.5 2.5 0 0 1-2.495 2.495h-10.289a2.5 2.5 0 0 1-2.494-2.495 2.508 2.508 0 0 1 2.494-2.494z"/></g><g><path fill="#e1f4fd" d="M259.778 92.438h-27.744a2.5 2.5 0 0 1-2.494-2.495 2.5 2.5 0 0 1 2.494-2.494h27.744a2.5 2.5 0 0 1 2.494 2.494 2.5 2.5 0 0 1-2.494 2.495z"/></g></g><g><path fill="#95c81f" d="M183.79 247.64c.946-.162 1.886-.317 2.832-.466 4.6-.72 9.18-1.582 13.736-2.573 9.019-1.963 18.096-3.647 27.284-4.515.971-.091 1.95-.175 2.921-.246 4.122-.311 8.43-.415 12.2 1.554 3.772 1.97 6.765 6.629 5.845 11.119-.648 3.155-3.058 5.527-5.74 6.725-2.683 1.2-5.63 1.406-8.527 1.6-9.375.629-18.757 1.264-28.133 1.892-4.645.312-9.284.63-13.93.953-4.432.31-8.935.933-13.38.933-1.878 0-3.978-.357-5.559-1.607-2.196-1.743-3.518-5.456-3.732-8.358-.11-1.51.182-3.337 1.335-4.27.616-.498 1.406-.654 2.158-.79 3.583-.655 7.127-1.341 10.69-1.95z"/></g><g><path fill="#f8a17a" d="M173.274 261.927c-2.267.467-4.036 2.463-6.297 3.13-1.613.473-3.337.22-4.88-.357-1.424-.53-2.87-.816-4.327-1.289-1.14-.362-2.676-1.133-3.9-.875-3.208.668-6.402 2.949-9.311 4.432-.655.331-1.367.674-2.087.538-.719-.136-1.321-1.01-.913-1.62-.836.784-1.944 2.346-3.292 1.737-.55-.246-.88-.978-.576-1.497-.467.505-.953 1.03-1.588 1.283-.641.252-1.477.142-1.853-.434-.175-.273-.233-.603-.246-.927-.058-1.114.279-2.209.745-3.226 2.287-4.996 7.464-8.702 11.87-11.675.778-.526 1.575-1.063 2.469-1.335.803-.246 1.658-.273 2.5-.28a49.831 49.831 0 0 1 16.101 2.6c1.121.375 2.352.058 3.467-.156.83-.155 1.69-.311 2.494-.071.901.265 1.6.978 2.152 1.742 1.01 1.406 1.788 3.265 1.665 5.028-.091 1.341-.195 2.786-1.77 3.064-.64.117-1.295.046-1.943.11-.169.027-.324.046-.48.078z"/></g></g></g></g></svg>