<svg xmlns="http://www.w3.org/2000/svg" width="158" height="183" viewBox="0 0 158 183"><defs><linearGradient id="ukl0a" x1="74.32" x2="118.65" y1="80.92" y2="180.06" gradientUnits="userSpaceOnUse"><stop offset="0" stop-color="#fff"/><stop offset="1" stop-color="#c6d4ee"/></linearGradient></defs><g><g><g><g><g><g><path fill="#c7d4e2" d="M41.843 79.221H2.248A2.254 2.254 0 0 1 0 76.974V22.952a2.254 2.254 0 0 1 2.248-2.248h39.595a2.254 2.254 0 0 1 2.247 2.248v53.977c0 1.259-.988 2.292-2.247 2.292z"/></g><g><path fill="#fff" d="M41.034 78.367H2.922A2.254 2.254 0 0 1 .675 76.12V23.626a2.254 2.254 0 0 1 2.247-2.247h38.157a2.254 2.254 0 0 1 2.247 2.247V76.12c-.045 1.214-1.033 2.247-2.292 2.247z"/></g></g><g><g><path fill="#0097a4" d="M5.843 30.772v-.495H40v.495z"/></g><g><path fill="#0097a4" d="M5.843 32.794V32.3H40v.494z"/></g><g><path fill="#0097a4" d="M5.843 34.682v-.494H40v.494z"/></g><g><path fill="#0097a4" d="M5.843 36.615v-.495h17.978v.495z"/></g></g><g><g><path fill="#0097a4" d="M5.843 40.794V40.3H40v.494z"/></g><g><path fill="#0097a4" d="M5.843 42.817v-.495H40v.495z"/></g><g><path fill="#0097a4" d="M5.843 44.75v-.495H40v.494z"/></g><g><path fill="#0097a4" d="M5.843 46.637v-.494H40v.494z"/></g></g><g><g><path fill="#0097a4" d="M6.068 61.289v-.495h34.157v.495z"/></g><g><path fill="#0097a4" d="M6.068 63.311v-.494h34.157v.494z"/></g><g><path fill="#0097a4" d="M6.068 65.244v-.495h34.157v.495z"/></g><g><path fill="#0097a4" d="M6.068 67.131v-.494h34.157v.494z"/></g></g><g><g><path fill="#0097a4" d="M5.843 51.176v-.494H40v.494z"/></g><g><path fill="#0097a4" d="M5.843 53.154v-.495H40v.495z"/></g><g><path fill="#0097a4" d="M5.843 55.086v-.494H40v.494z"/></g><g><path fill="#0097a4" d="M5.843 57.019v-.494h17.348v.494z"/></g></g><g><path fill="#95c81f" d="M20.518 58.504c-5.781-.945-9.701-6.398-8.756-12.18.945-5.78 6.399-9.7 12.18-8.755 5.781.945 9.701 6.398 8.756 12.18-.946 5.78-6.399 9.7-12.18 8.755z"/></g><g><path fill="#fff" d="M21.843 41.154l6.427 8.135h-3.73v5.618H19.19v-5.528h-3.73z"/></g></g></g><g opacity=".65"><path fill="#c7d4e2" d="M13.798 171.536c0-2.408 31.592-4.36 70.562-4.36s70.562 1.952 70.562 4.36c0 2.408-31.592 4.36-70.562 4.36s-70.562-1.952-70.562-4.36z"/></g><g><path fill="#60b8ba" d="M130.293 171.536H34.922a6.828 6.828 0 0 1-6.832-6.831V37.064a6.828 6.828 0 0 1 6.832-6.831h95.326a6.828 6.828 0 0 1 6.831 6.831V164.66a6.772 6.772 0 0 1-6.786 6.876z"/></g><g><path fill="url(#ukl0a)" d="M127.506 162.278H37.663a4.67 4.67 0 0 1-4.674-4.675V41.29a4.67 4.67 0 0 1 4.674-4.674h89.843a4.67 4.67 0 0 1 4.674 4.674v116.314c.045 2.562-2.067 4.675-4.674 4.675z"/></g><g><path fill="#0097a4" d="M86.787 167.131a2.369 2.369 0 0 1-2.382 2.382 2.369 2.369 0 0 1-2.382-2.382 2.369 2.369 0 0 1 2.382-2.381 2.398 2.398 0 0 1 2.382 2.381z"/></g><g><g><g><path fill="#0097a4" d="M44.944 67.131h18.697s.36-11.37-9.348-11.37c-9.753 0-9.349 11.37-9.349 11.37z"/></g><g><path fill="#0097a4" d="M49.304 48.794a4.944 4.944 0 1 1 9.887 0 4.944 4.944 0 0 1-9.887 0z"/></g></g><g><g><path fill="#0097a4" d="M44.944 71.042v-1.484h41.618v1.484z"/></g><g><path fill="#0097a4" d="M44.944 74.637v-1.483h41.618v1.483z"/></g><g><path fill="#0097a4" d="M44.944 78.367v-1.483h41.618v1.483z"/></g><g><path fill="#0097a4" d="M44.944 82.367v-1.483h41.618v1.483z"/></g></g></g><g><g><path fill="#0097a4" d="M79.776 143.806v-1.484h41.618v1.484z"/></g><g><path fill="#0097a4" d="M79.776 147.356v-1.483h41.618v1.483z"/></g><g><path fill="#0097a4" d="M79.776 151.131v-1.483h41.618v1.483z"/></g><g><path fill="#0097a4" d="M79.776 155.131v-1.483h41.618v1.483z"/></g></g><g><g><path fill="#0097a4" d="M83.057 87.536s-10.158 7.101-23.686 4.719c0 0-5.168 34.112 22.337 43.506 0 0 .9.45 2.697 0 28.225-7.057 22.337-43.506 22.337-43.506-13.528 2.382-23.685-4.72-23.685-4.72"/></g><g><path fill="#fff" d="M83.102 91.491s-8.495 5.933-19.82 3.955c0 0-4.315 28.494 18.651 36.36 0 0 .764.36 2.247 0 23.55-5.888 18.652-36.36 18.652-36.36-11.281 2.023-19.73-3.955-19.73-3.955"/></g><g><path fill="#086f72" d="M83.102 93.379s-7.686 5.393-17.978 3.595c0 0-3.91 25.843 16.944 32.989 0 0 .674.36 2.067 0 21.394-5.348 16.944-32.989 16.944-32.989-10.292 1.798-17.977-3.595-17.977-3.595"/></g><g><path fill="#0097a4" d="M83.326 128.525c-.27 0-.539-.045-.899-.135-19.685-4.72-15.865-30.157-15.865-30.157 9.438 1.573 16.495-3.461 16.495-3.461z"/></g><g><g><path fill="#fff" d="M88.854 121.514H77.978a2.254 2.254 0 0 1-2.247-2.248v-8.674a2.254 2.254 0 0 1 2.247-2.247h10.876a2.254 2.254 0 0 1 2.248 2.247v8.674a2.254 2.254 0 0 1-2.248 2.248z"/></g><g><path fill="none" stroke="#fff" stroke-miterlimit="20" stroke-width="2.87" d="M88.27 109.154v0s1.079-8.584-4.404-8.81c-3.191-.134-4.854 2.023-4.854 4.99"/></g><g><path fill="#086f72" d="M85.663 113.828a2.225 2.225 0 0 0-2.247-2.247 2.225 2.225 0 0 0-2.247 2.247c0 .854.45 1.573 1.124 1.933v2.517h2.202v-2.472a2.269 2.269 0 0 0 1.168-1.978z"/></g></g></g><g><g><g><path fill="#c7d4e2" d="M16.54 103.356c0-8.191 6.64-14.831 14.831-14.831 8.191 0 14.832 6.64 14.832 14.831 0 8.191-6.64 14.832-14.832 14.832-8.191 0-14.831-6.64-14.831-14.832z"/></g><g><path fill="#95c81f" d="M28.175 117.607c-7.867-1.264-13.22-8.665-11.956-16.532 1.264-7.867 8.665-13.22 16.532-11.956 7.867 1.264 13.22 8.666 11.956 16.532-1.264 7.867-8.666 13.22-16.532 11.956z"/></g><g><g><path fill="#fff" d="M27.955 92.84h5.663l-1.213 15.235h-3.686z"/></g><g><path fill="#fff" d="M32.495 111.76c-.09 1.259-1.169 2.203-2.382 2.158a2.324 2.324 0 0 1-2.158-2.382c.09-1.259 1.169-2.202 2.383-2.157 1.258.044 2.247 1.123 2.157 2.382z"/></g></g></g><g><g><g><path fill="none" stroke="#95c81f" stroke-miterlimit="20" stroke-width="2.16" d="M12.675 102.952H7.28"/></g><g><path fill="none" stroke="#95c81f" stroke-miterlimit="20" stroke-width="2.16" d="M13.708 96.794l-4.764-2.516"/></g><g><path fill="none" stroke="#95c81f" stroke-miterlimit="20" stroke-width="2.16" d="M18.203 92.21l-2.562-4.764"/></g></g><g><g><path fill="none" stroke="#95c81f" stroke-miterlimit="20" stroke-width="2.16" d="M13.618 109.109l-4.764 2.517"/></g><g><path fill="none" stroke="#95c81f" stroke-miterlimit="20" stroke-width="2.16" d="M17.618 114.547l-2.561 4.72"/></g></g></g></g><g><g><path fill="#086f72" d="M147.192.345c-33.124 17.843-35.956 22.966-35.956 22.966-1.213-.36-.988-1.078-.988-1.078C122.472 10.053 147.102.075 147.102.075s.45.045.09.27z"/></g><g><path fill="none" stroke="#c7d4e2" stroke-miterlimit="20" d="M147.147.345c2.382 18.786 1.528 43.685-3.146 62.022"/></g><g><path fill="#0097a4" d="M129.484 24.165H88.989c-.944 0-1.798-.45-2.292-1.258-1.303-2.068-2.022-5.034-1.483-7.101.719-2.562 2.831-4.63 5.348-5.349-.404-3.955 2.652-7.865 6.517-8.719 3.865-.899 8.135 1.079 10.247 4.45.36.584.72 1.258 1.394 1.483.629.18 1.303-.18 1.932-.45 2.652-1.168 5.888-.944 8.405.585 2.472 1.528 4.134 4.314 4.314 7.235 2.113-.898 4.72-.494 6.427 1.08 1.708 1.527 2.337 4.134 1.618 6.291-.045 0-.36 1.753-1.932 1.753z"/></g><g><g opacity=".8"><path fill="#264647" d="M99.326 18.682a7.955 7.955 0 1 1 15.91 0 7.955 7.955 0 0 1-15.91 0z"/></g><g><path fill="#95c81f" d="M98.517 18.412a7.955 7.955 0 1 1 15.91 0 7.955 7.955 0 0 1-15.91 0z"/></g><g><path fill="none" stroke="#fff" stroke-miterlimit="20" stroke-width="2.91" d="M102.832 19.67v0l2.652 2.428v0l5.168-6.832v0"/></g></g></g><g><g><path fill="#0097a4" d="M42.967 135.446l14.157-.045c1.214-.045 2.202-1.034 2.202-2.247v-11.506L48 121.693v-1.573h-5.078V135.446z"/></g><g><path fill="#fff" d="M45.394 129.828v-11.056h9.753v11.056z"/></g><g><path fill="#086f72" d="M58.248 135.446l-.045-11.101h-12.18v3.326h-5.124v7.775"/></g><g><path fill="#0097a4" d="M59.371 124.345v9.978c0 .629-.494 1.123-1.123 1.123-.63 0-1.124-.494-1.124-1.123v-9.978z"/></g><g><g><path fill="#0097a4" d="M46.068 120.75v-.315h8.404v.314z"/></g><g><path fill="#0097a4" d="M46.068 121.469v-.315h8.404v.315z"/></g><g><path fill="#0097a4" d="M46.068 122.233v-.315h8.404v.315z"/></g><g><path fill="#0097a4" d="M46.068 123.042v-.315h3.775v.315z"/></g></g></g><g><g><path fill="#0097a4" d="M42.967 156.39l14.157-.045c1.214-.045 2.202-1.034 2.202-2.247v-11.55L48 142.591v-1.573h-5.078V156.39z"/></g><g><path fill="#fff" d="M45.349 150.772v-11.056h9.753v11.056z"/></g><g><path fill="#086f72" d="M58.203 156.39v-11.101H45.978v3.326h-5.124v7.775"/></g><g><path fill="#0097a4" d="M59.326 145.289v9.977c0 .63-.494 1.124-1.123 1.124-.63 0-1.124-.494-1.124-1.124v-9.977z"/></g><g><g><path fill="#0097a4" d="M46.023 141.693v-.314h8.404v.314z"/></g><g><path fill="#0097a4" d="M46.023 142.412v-.314h8.404v.314z"/></g><g><path fill="#0097a4" d="M46.023 143.176v-.314h8.404v.314z"/></g><g><path fill="#0097a4" d="M46.023 143.985v-.314h3.775v.314z"/></g></g></g><g><g><path fill="none" stroke="#407cca" stroke-miterlimit="20" stroke-width=".5" d="M69.08 67.042v0-23.73 0h57.392v23.73z"/></g><g><path fill="#0097a4" d="M76.99 52.66v-.63h41.617v.63z"/></g><g><path fill="#0097a4" d="M76.99 55.086v-.629h41.617v.63z"/></g><g><path fill="#0097a4" d="M76.99 57.424v-.63h41.617v.63z"/></g><g><path fill="#0097a4" d="M76.99 59.76v-.629h41.617v.63z"/></g><g><g><path fill="#95c81f" d="M115.236 49.963a4 4 0 1 1 8 0 4 4 0 0 1-8 0z"/></g><g><g><path fill="#fff" d="M118.248 47.806l.629.943c.18.225.314.45.45.72h.044c.135-.27.27-.495.405-.72l.584-.898h.854l-1.483 2.067 1.528 2.202h-.899l-.63-.944a6.763 6.763 0 0 1-.449-.764c-.134.27-.314.495-.45.764l-.628.944h-.854l1.528-2.202-1.438-2.112z"/></g></g></g></g><g><g><path fill="#f8a17a" d="M144.54 114.412l1.932 4.764h-5.662l-.63-1.258s.135-2.337 1.933-3.191c1.708-.854 2.427-.315 2.427-.315z"/></g><g><path fill="#f8a17a" d="M116.045 114.412l-1.932 4.764h5.663l.629-1.258s-.135-2.337-1.933-3.191c-1.707-.854-2.427-.315-2.427-.315z"/></g><g><path fill="#086f72" d="M141.978 151.401a57.66 57.66 0 0 0-3.326-20.09l-4.764.405c-5.573.36-11.506-.405-11.506-.405a57.66 57.66 0 0 0-3.325 20.09c.045 2.697-.405 15.281 1.213 26.922H124l.18-2.113c.405-8.18 1.843-16.854 3.775-24.854a136.847 136.847 0 0 1 1.978-7.37l.584-1.933c.72 2.382 1.888 6.472 2.517 9.123 1.933 8.045 3.506 16.765 3.955 25.034l.18 2.113h3.73c1.618-11.64 1.034-24.225 1.079-26.922z"/></g><g><path fill="#003a70" d="M140.9 178.367c1.258.765 2.83 1.663 3.91 2.607.27.27.584.585.539.944-.045.405-.494.63-.854.72-.584.134-1.258.134-1.843.09-1.483-.046-3.011-.136-4.404-.675-.315-.135-.63-.27-.81-.54-.314-.404-.314-.943-.314-1.438 0-.584.045-1.123.045-1.708"/></g><g><path fill="#003a70" d="M120.225 178.367c-1.258.765-2.831 1.663-3.91 2.607-.27.27-.584.585-.54.944.046.405.495.63.855.72.584.134 1.258.134 1.842.09 1.484-.046 3.012-.136 4.405-.675.314-.135.63-.27.809-.54.314-.404.314-.943.314-1.438 0-.584-.044-1.123-.044-1.708"/></g><g><g><path fill="#407cca" d="M145.259 182.233s-.135.045-.36.045c-.224.044-.539.09-.943.09-.81.044-1.843-.046-2.877-.135-1.034-.09-2.067-.27-2.831-.54-.36-.135-.675-.314-.854-.494a7.723 7.723 0 0 1-.225-.315c0-.045 0-.09.045-.09s.045 0 .09.045c0 0 .045.09.225.27.134.18.404.315.764.404.719.225 1.752.405 2.786.495 1.034.09 2.068.18 2.832.135a8.77 8.77 0 0 0 1.303-.09c.045 0 .045 0 .045.045.045.135 0 .135 0 .135z"/></g></g><g><g><path fill="#407cca" d="M115.956 182.143s.494.09 1.258.09 1.753-.045 2.786-.135c.99-.09 2.023-.225 2.742-.45.36-.09.63-.224.809-.36.18-.134.225-.224.225-.224 0-.045.045-.045.09 0 .045 0 .045.045 0 .09 0 0-.045.135-.225.27a2.52 2.52 0 0 1-.854.404c-.72.225-1.753.405-2.787.495-1.033.09-2.022.134-2.786.09-.405 0-.72-.046-.944-.09-.225-.045-.36-.045-.36-.045-.044 0-.044-.045-.044-.09s.045-.045.09-.045z"/></g></g><g><g><path fill="#407cca" d="M136.315 131.626s0 .09.045.27c.045.18.09.36.18.629.045.135.09.27.18.404.045.135.134.27.224.45.18.314.405.629.63.899.224.27.494.539.764.764.134.09.27.224.404.314.135.09.27.18.36.225.224.135.449.27.584.314.135.045.224.09.224.09.046 0 .046.045.046.09s-.046.045-.09.045c0 0-.09-.045-.27-.09a2.406 2.406 0 0 1-.63-.27 4.22 4.22 0 0 1-.808-.539 6.858 6.858 0 0 1-.81-.809c-.224-.314-.449-.629-.628-.943-.09-.18-.18-.315-.225-.495-.045-.135-.135-.314-.18-.45-.09-.269-.135-.539-.18-.673-.045-.18-.045-.27-.045-.27 0-.045 0-.09.045-.09.135.09.18.09.18.135z"/></g></g><g><g><path fill="#407cca" d="M124.944 131.67s0 .09-.045.27c-.045.18-.09.405-.18.675-.044.134-.09.27-.18.45a4.376 4.376 0 0 1-.224.493c-.18.315-.404.63-.63.944-.269.315-.538.585-.808.81-.27.224-.584.404-.81.539-.269.134-.493.224-.628.27-.18.044-.27.09-.27.09-.045 0-.09 0-.09-.046 0-.045 0-.09.045-.09 0 0 .09-.045.225-.09.135-.044.36-.18.584-.314.135-.09.225-.135.36-.225.134-.09.27-.18.404-.315.27-.224.54-.494.764-.764.225-.27.45-.584.63-.898.09-.135.18-.315.224-.45.045-.135.135-.27.18-.404.09-.27.18-.495.18-.63.045-.18.045-.27.045-.27 0-.044.045-.044.09-.044.134-.09.134-.045.134 0z"/></g></g><g><path fill="#003a70" d="M121.394 115.221s-.674 2.203-.944 2.742l-.45-.584c-.764-.9-2.966-2.247-3.955-2.967 2.877-7.19 4.585-6.92 6.203-7.236.854-.18 1.797-.314 2.651-.449 5.349-.809 13.394.45 13.394.45 1.573.314 3.28 0 6.202 7.235-.944.72-3.146 2.068-3.955 2.967l-.45.584c-.27-.54-.944-2.742-.944-2.742v.54c-.09 5.123-.224 9.708-.314 14.786 0 .315-.045.72-.36.854 0 0-2.561.495-8.584.495 0 0-7.506-.045-7.775-.675-.09-.18-.135-.36-.135-.584a91.369 91.369 0 0 0-.18-3.506c-.09-1.528-.135-3.056-.225-4.584a700.77 700.77 0 0 0-.18-7.326z"/></g><g><path fill="#f8a17a" d="M132.854 101.603c.09.9.225 1.798.315 2.652.045.315.09.899.225 1.169.224.449 2.292 1.213 2.696 1.438 0 0-1.573 1.393-5.707 1.528-4.09.18-5.484-1.708-5.484-1.708.405-.225 2.427-.989 2.697-1.438.135-.27.18-.854.225-1.169.09-.899.224-1.798.314-2.651"/></g><g><path fill="#f8a17a" d="M134.787 94.008c.315 1.798-.135 5.348-.54 6.786-.134.585-.314 1.169-.673 1.618-1.843 2.293-4.27 1.573-5.08 1.034a3.966 3.966 0 0 1-1.437-1.663c-.72-1.753-1.034-3.73-.854-5.618 0 0-.225-4.989 4.899-4.989 0 0 3.146-.134 3.685 2.832z"/></g><g><path fill="#f8a17a" d="M126.338 99.087c-.09.18-.36.134-.495.044a1.071 1.071 0 0 1-.27-.494c-.044-.18-.044-.36-.044-.584a.51.51 0 0 1 .134-.36.35.35 0 0 1 .36-.09c.135.045.225.18.225.315z"/></g><g><path fill="#f8a17a" d="M134.607 97.963c.045-.135.135-.36.27-.405.135-.045.404 0 .494.135.09.09.09.225.135.36 0 .18 0 .36-.045.584-.045.18-.09.405-.27.494-.134.135-.404.135-.494-.044-.045 0-.27-.54-.09-1.124z"/></g><g><path fill="#3c3c3b" d="M127.73 93.738a3.6 3.6 0 0 1-.044 2.068c-.225.674-.584 1.258-1.034 1.797-.135.135-.314.315-.494.18-.09-.045-.135-.135-.18-.225-.405-1.078-.315-2.337.315-3.28 0-.81.224-1.663.764-2.293.539-.584 1.348-.943 2.157-.988.404 0 .764-.18 1.124-.135.314.045.629.135.943.135.315 0 .63-.135.944-.18.54-.045 1.124.18 1.483.63.135.134.225.359.405.449.135.09.314.134.494.18.54.224 1.034.628 1.034 1.348v.134c0 2.338-2.337 1.933-3.056 1.663-.81-.27-1.573-.629-2.292-1.078-.09.09-.045.27-.09.404-.045.135-.18.225-.315.27-.135.045-.27 0-.404-.045-.36-.09-.72-.135-1.034-.27-.315-.224-.584-.404-.72-.764"/></g><g><path fill="#f7c5b4" d="M132.9 103.176s-.72.764-2.203.9c-1.528.134-2.472-.765-2.652-.9 0 0 .315 1.663 2.472 1.663 2.113.045 2.382-1.663 2.382-1.663z"/></g><g><path fill="#3c3c3b" d="M134.382 95.131c-.09.765.045 1.618.405 2.293.045.09.09.18.18.18s.135-.046.18-.09c.044-.045.044-.135.09-.225.134-.81.27-1.663-.046-2.427-.044-.045-.044-.09-.09-.135-.044-.045-.134-.045-.18-.045-.269 0-.539.27-.539.54"/></g><g opacity=".48"><path fill="#086f72" d="M138.517 131.401s-5.033.584-8.224.495c-3.191-.09-6.967-.09-7.955-.585.044 0 7.146 2.562 16.18.09z"/></g><g><g/></g><g><g/></g><g><g/></g><g><g/></g><g><g/></g><g><g><path fill="#95c81f" d="M147.866 141.513h-34.877a2.254 2.254 0 0 1-2.247-2.247v-17.842a2.254 2.254 0 0 1 2.247-2.248h34.877a2.254 2.254 0 0 1 2.247 2.248v17.842a2.225 2.225 0 0 1-2.247 2.247z"/></g><g><path fill="#086f72" d="M110.742 126.682v-4.135h39.37v4.135z"/></g><g><path fill="#fff" d="M111.73 130.367v-2.382h12.136v2.382z"/></g><g><path fill="#fff" d="M125.529 130.367v-2.382h5.797v2.382z"/></g></g><g><path fill="#f8a17a" d="M150.967 132.974l-.854-3.82v4.18c-.45-.18-.989-.405-1.438-.54-.225-.09-.54-.134-.675.045-.134.225.045.495.27.674.225.18.45.315.72.405-.36-.045-.72-.135-1.08-.18-.09 0-.18-.045-.269 0-.18.09-.045.36.09.495.27.224.584.36.899.404-.27-.045-.54 0-.81 0-.09 0-.179.045-.269.09-.225.135-.135.494.09.63.225.134.494.134.72.134-.18.09-.405.09-.63.135-.18.09-.405.27-.315.494.045.135.225.225.405.225.404.09.809.135 1.213.18.36 0 .764 0 1.079-.18.45-.27.674-.72.809-1.214.27-.674.27-1.438.045-2.157z"/></g><g><path fill="#f8a17a" d="M113.08 135.76c-.18-.09-.405-.044-.63-.134.27 0 .54 0 .719-.135.225-.135.27-.494.09-.63-.09-.044-.18-.09-.27-.09a2.445 2.445 0 0 0-.809 0c.315-.044.63-.179.9-.404.134-.134.269-.404.089-.494a.287.287 0 0 0-.27 0c-.36.045-.719.135-1.078.18.27-.09.494-.225.719-.405.225-.135.404-.45.27-.674-.135-.18-.45-.135-.675-.045-.45.18-.988.405-1.438.54v-4.18l-.854 3.82c-.18.72-.18 1.483 0 2.202.135.495.36.989.81 1.214.314.18.718.224 1.078.18.404 0 .809-.045 1.213-.18.135-.045.315-.09.405-.225a.416.416 0 0 0-.27-.54z"/></g><g><g><path fill="#003a70" d="M135.147 115.087a.247.247 0 0 1 .224-.135h.27c.09 0 .225.045.315.09s.134.045.18.134c.044.045.044.135.044.225s-.045.18-.09.27c-.045.09-.134.135-.224.18-.18.045-.36-.045-.495-.18s-.27-.225-.27-.405c0 0 0-.135.046-.18z"/></g><g><path fill="#003a70" d="M134.742 115.176a.35.35 0 0 0-.18-.18c-.09-.044-.18-.044-.27-.044h-.314c-.09 0-.18 0-.225.09a.344.344 0 0 0-.09.224v.27c.045.09.09.18.18.225.135.09.36 0 .495-.045.18-.09.314-.18.36-.36.044-.045.044-.135.044-.18z"/></g><g><path fill="#003a70" d="M134.922 115.58l.045.046c.045.09.135.18.135.314v.135h-.09c-.045 0-.045-.045-.09-.045h-.09c-.045 0-.09.045-.135 0-.045-.045-.045-.09-.045-.09 0-.045 0-.09.045-.134.045-.045.045-.135.09-.18.09 0 .135-.09.135-.045z"/></g></g></g><g><g><path fill="#c7d4e2" d="M153.933 62.233h-50.337a3.702 3.702 0 0 0-3.685 3.685v17.213a3.702 3.702 0 0 0 3.685 3.686h50.382a3.702 3.702 0 0 0 3.685-3.686V65.918c0-2.023-1.663-3.685-3.73-3.685z"/></g><g><g><g><path fill="#0097a4" d="M156.315 68.21v-3.146a3.702 3.702 0 0 0-3.685-3.685h-50.427a3.702 3.702 0 0 0-3.686 3.685v3.146z"/></g><g><path fill="#fff" d="M98.517 68.21v14.068a3.702 3.702 0 0 0 3.686 3.685h50.382a3.702 3.702 0 0 0 3.685-3.685V68.21z"/></g></g><g><g><path fill="#0097a4" d="M112.585 75.086h.989l-.135 1.708 1.438-1.078.494.899-1.618.809 1.618.854-.494.898-1.438-1.123.135 1.753h-.99l.18-1.798-1.438 1.123-.494-.898 1.573-.81-1.618-.763.494-.9 1.439 1.08z"/></g><g><path fill="#0097a4" d="M119.956 75.086h.988l-.134 1.708 1.438-1.078.494.899-1.618.809 1.618.854-.494.898-1.438-1.123.134 1.753h-.988l.18-1.798-1.439 1.123-.494-.898 1.573-.81-1.618-.763.494-.9 1.438 1.08z"/></g><g><path fill="#0097a4" d="M127.326 75.086h.99l-.136 1.708 1.438-1.078.495.899-1.618.809 1.618.854-.495.898-1.438-1.123.135 1.753h-.989l.18-1.798-1.438 1.123-.494-.898 1.573-.81-1.618-.763.494-.9 1.438 1.08z"/></g><g><path fill="#0097a4" d="M134.697 75.086h.989l-.135 1.708 1.438-1.078.495.899-1.618.809 1.618.854-.495.898-1.438-1.123.135 1.753h-.989l.18-1.798-1.438 1.123-.495-.898 1.573-.81-1.618-.763.495-.9 1.438 1.08z"/></g><g><path fill="#0097a4" d="M142.023 75.086h.989l-.135 1.708 1.438-1.078.494.899-1.617.809 1.617.854-.494.898-1.438-1.123.135 1.753h-.989l.18-1.798-1.438 1.123-.495-.898 1.573-.81-1.618-.763.495-.9 1.438 1.08z"/></g></g></g></g></g></g></svg>