<svg xmlns="http://www.w3.org/2000/svg" width="10.821" height="14.763" viewBox="0 0 10.821 14.763"><path d="M5.411,0A5.417,5.417,0,0,0,0,5.411c0,1.371.864,3.307,2.567,5.755A38.614,38.614,0,0,0,5.088,14.4l.323.364.323-.364a38.668,38.668,0,0,0,2.521-3.233c1.7-2.449,2.567-4.385,2.567-5.755A5.417,5.417,0,0,0,5.411,0Zm2.14,10.666c-.841,1.211-1.692,2.252-2.14,2.784-.447-.53-1.294-1.568-2.135-2.777C1.7,8.4.863,6.585.863,5.411a4.547,4.547,0,0,1,9.095,0c0,1.173-.832,2.99-2.407,5.256Zm0,0" fill="#0097a4"/><path d="M80.092,69.352a3.193,3.193,0,1,0,3.193,3.193A3.2,3.2,0,0,0,80.092,69.352Zm0,5.523a2.33,2.33,0,1,1,2.33-2.33A2.333,2.333,0,0,1,80.092,74.875Zm0,0" transform="translate(-74.682 -67.352)" fill="#0097a4"/></svg>