<svg xmlns="http://www.w3.org/2000/svg" width="12.683" height="12.705" viewBox="0 0 12.683 12.705">
  <path id="phone-icon" d="M10.371,3.727a2.784,2.784,0,0,1,2.2,2.2M10.371,1.5A5.011,5.011,0,0,1,14.8,5.921m-.557,4.443v1.67a1.113,1.113,0,0,1-1.214,1.113,11.018,11.018,0,0,1-4.8-1.709A10.857,10.857,0,0,1,4.882,8.1,11.018,11.018,0,0,1,3.172,3.27,1.113,1.113,0,0,1,4.28,2.057h1.67a1.113,1.113,0,0,1,1.113.958,7.149,7.149,0,0,0,.39,1.564A1.113,1.113,0,0,1,7.2,5.754L6.5,6.461A8.908,8.908,0,0,0,9.837,9.8l.707-.707a1.114,1.114,0,0,1,1.175-.251,7.149,7.149,0,0,0,1.564.39A1.113,1.113,0,0,1,14.24,10.363Z" transform="translate(-2.667 -0.948)" fill="none" stroke="currentColor" stroke-linecap="round" stroke-linejoin="round" stroke-width="1"/>
</svg>
