<svg xmlns="http://www.w3.org/2000/svg" width="14" height="14" viewBox="0 0 14 14"><g><g><path fill="none" stroke="#0097a4" stroke-linecap="round" stroke-linejoin="round" stroke-miterlimit="20" d="M12.073 10.363v1.67a1.113 1.113 0 0 1-1.214 1.114 11.018 11.018 0 0 1-4.805-1.709 10.857 10.857 0 0 1-3.34-3.34 11.018 11.018 0 0 1-1.71-4.828 1.114 1.114 0 0 1 1.108-1.213h1.67a1.114 1.114 0 0 1 1.114.957c.07.535.201 1.06.39 1.565.153.407.055.865-.25 1.175l-.708.707a8.908 8.908 0 0 0 3.34 3.34l.708-.707c.309-.306.768-.403 1.175-.25.505.188 1.03.319 1.564.39.56.078.972.564.958 1.13zM8.203 1.5a5.01 5.01 0 0 1 4.426 4.42zm0 2.227a2.784 2.784 0 0 1 2.2 2.2z"/></g></g></svg>