<svg xmlns="http://www.w3.org/2000/svg" width="72.329" height="72.073" viewBox="0 0 72.329 72.073"><defs><style>.a{fill:#0097a4;}</style></defs><g transform="translate(-1 -1)"><path class="a" d="M46.137,45.275A8.137,8.137,0,1,0,38,37.137,8.146,8.146,0,0,0,46.137,45.275Zm0-13.95a5.812,5.812,0,1,1-5.812,5.812A5.819,5.819,0,0,1,46.137,31.325Z" transform="translate(6.011 4.549)"/><path class="a" d="M45.487,39.975A3.487,3.487,0,1,0,42,36.487,3.492,3.492,0,0,0,45.487,39.975Zm0-4.65a1.162,1.162,0,1,1-1.162,1.162A1.164,1.164,0,0,1,45.487,35.325Z" transform="translate(6.661 5.199)"/><path class="a" d="M59.26,60.4l.8-1.279H73.329l-1.522-7.6L64.8,45.682c.079-.867.134-1.737.134-2.612,0-.074-.007-.146-.008-.221h.008V4.487A3.492,3.492,0,0,0,61.449,1H4.487A3.492,3.492,0,0,0,1,4.487V53.311A3.492,3.492,0,0,0,4.487,56.8H31.434l-.465,2.325H44.239l.8,1.279-.451,1.129a6.984,6.984,0,0,0,2.29,8.17l2.2,1.651L51.3,66.9a7.2,7.2,0,0,1,2.008,5.01v1.162h2.883l1.934-2.418a9.6,9.6,0,0,0,1.415-9.545ZM46.98,59.124l-1.275-2.04a26.358,26.358,0,0,1-1.417-2.61h15.72a26.488,26.488,0,0,1-1.417,2.61l-1.274,2.04ZM44.5,31.224H59.793A26.363,26.363,0,0,1,61,52.149H43.294A26.363,26.363,0,0,1,44.5,31.224ZM45.821,28.9c.1-.164.2-.335.306-.5L49.5,23.34a3.182,3.182,0,0,1,5.3,0L58.169,28.4c.108.163.2.332.306.5H45.821ZM69.689,52.779l.8,4.02H61.439a28.715,28.715,0,0,0,2.985-8.407ZM4.487,3.325H61.449a1.164,1.164,0,0,1,1.162,1.162V14.95H3.325V4.487A1.164,1.164,0,0,1,4.487,3.325ZM31.9,54.474H4.487a1.164,1.164,0,0,1-1.162-1.162V17.275H62.611V31.781a28.83,28.83,0,0,0-2.506-4.67L56.731,22.05a5.508,5.508,0,0,0-9.164,0l-3.373,5.061A28.669,28.669,0,0,0,39.362,43.07c0,.875.055,1.745.134,2.611L32.49,51.518Zm2.71-1.695,5.265-4.387A28.714,28.714,0,0,0,42.858,56.8H33.8ZM56.314,69.2l-.823,1.028a9.509,9.509,0,0,0-2.661-5.1l-2.161-2.161L48.246,67.82a4.657,4.657,0,0,1-1.5-5.426l.377-.945H57.174l.21.527A7.272,7.272,0,0,1,56.314,69.2Z"/><path class="a" d="M11.975,5H5v6.975h6.975ZM9.65,9.65H7.325V7.325H9.65Z" transform="translate(0.65 0.65)"/><path class="a" d="M19.975,5H13v6.975h6.975ZM17.65,9.65H15.325V7.325H17.65Z" transform="translate(1.95 0.65)"/><path class="a" d="M27.975,5H21v6.975h6.975ZM25.65,9.65H23.325V7.325H25.65Z" transform="translate(3.249 0.65)"/><path class="a" d="M32.9,17H25.924V40.249H23.6V26.3H16.625v13.95H14.3v-9.3H7.325v9.3H5v2.325H35.224V40.249H32.9Zm-4.65,2.325h2.325V40.249H28.249Zm-9.3,9.3h2.325V40.249H18.95Zm-9.3,4.65h2.325v6.975H9.65Z" transform="translate(0.65 2.6)"/><path class="a" d="M5,17H7.325v2.325H5Z" transform="translate(0.65 2.6)"/><path class="a" d="M9,17H20.625v2.325H9Z" transform="translate(1.3 2.6)"/><path class="a" d="M5,21H7.325v2.325H5Z" transform="translate(0.65 3.249)"/><path class="a" d="M9,21H20.625v2.325H9Z" transform="translate(1.3 3.249)"/></g></svg>