<svg xmlns="http://www.w3.org/2000/svg" width="57.754" height="64.374" viewBox="0 0 57.754 64.374"><defs><style>.a{fill:#0097a4;}</style></defs><g transform="translate(0)"><path class="a" d="M4.458,57.829v2.253A4.292,4.292,0,0,0,8.75,64.374H19.3a4.292,4.292,0,0,0,4.292-4.292V57.936H34.32v2.146a4.292,4.292,0,0,0,4.292,4.292h10.55a4.292,4.292,0,0,0,4.292-4.292V57.846a5.364,5.364,0,0,0,4.471-5.274V5.364A5.371,5.371,0,0,0,52.559,0H5.534A5.371,5.371,0,0,0,.17,5.364V9.656a1.073,1.073,0,0,0,2.146,0V5.364A3.219,3.219,0,0,1,5.534,2.146H52.559a3.219,3.219,0,0,1,3.219,3.219V52.572a3.219,3.219,0,0,1-3.219,3.219H5.534a3.219,3.219,0,0,1-3.219-3.219V15.021a1.073,1.073,0,1,0-2.146,0V52.572a5.374,5.374,0,0,0,4.288,5.257Zm46.849.107v2.146a2.146,2.146,0,0,1-2.146,2.146H38.612a2.146,2.146,0,0,1-2.146-2.146V57.936Zm-29.862,0v2.146A2.146,2.146,0,0,1,19.3,62.228H8.75A2.146,2.146,0,0,1,6.6,60.082V57.936Z" transform="translate(-0.17)"/><path class="a" d="M8.073,35.968A1.073,1.073,0,0,0,7,37.041V46.7a3.219,3.219,0,0,0,3.219,3.219H46.7A3.219,3.219,0,0,0,49.916,46.7V45.624a3.219,3.219,0,0,0,3.219-3.219V35.968a3.219,3.219,0,0,0-3.219-3.219V24.166a3.219,3.219,0,0,0,3.219-3.219V14.51a3.219,3.219,0,0,0-3.219-3.219V10.219A3.219,3.219,0,0,0,46.7,7H10.219A3.219,3.219,0,0,0,7,10.219V31.677a1.073,1.073,0,1,0,2.146,0V10.219a1.073,1.073,0,0,1,1.073-1.073H46.7a1.073,1.073,0,0,1,1.073,1.073v1.073a3.219,3.219,0,0,0-3.219,3.219v6.437a3.219,3.219,0,0,0,3.219,3.219v8.583a3.219,3.219,0,0,0-3.219,3.219v6.437a3.219,3.219,0,0,0,3.219,3.219V46.7A1.073,1.073,0,0,1,46.7,47.77H10.219A1.073,1.073,0,0,1,9.146,46.7V37.041A1.073,1.073,0,0,0,8.073,35.968ZM46.7,20.948V14.51a1.073,1.073,0,0,1,1.073-1.073h2.146a1.073,1.073,0,0,1,1.073,1.073v6.437a1.073,1.073,0,0,1-1.073,1.073H47.77A1.073,1.073,0,0,1,46.7,20.948Zm0,21.458V35.968A1.073,1.073,0,0,1,47.77,34.9h2.146a1.073,1.073,0,0,1,1.073,1.073v6.437a1.073,1.073,0,0,1-1.073,1.073H47.77A1.073,1.073,0,0,1,46.7,42.405Z" transform="translate(0.328 0.51)"/><path class="a" d="M15.981,32.8a12.875,12.875,0,1,0,0-9.853,12.875,12.875,0,0,0,0,9.853ZM22.8,18.425l.391.942a1.073,1.073,0,1,0,1.982-.822l-.389-.942a10.631,10.631,0,0,1,6.188,0l-.389.942a1.073,1.073,0,1,0,1.982.822l.391-.943A10.636,10.636,0,0,1,37.327,22.8l-.942.391a1.073,1.073,0,1,0,.822,1.982l.942-.389a10.631,10.631,0,0,1,0,6.188l-.942-.389a1.073,1.073,0,1,0-.822,1.982l.943.391a10.636,10.636,0,0,1-4.376,4.375l-.391-.942a1.073,1.073,0,1,0-1.982.822l.389.942a10.631,10.631,0,0,1-6.188,0l.389-.942a1.073,1.073,0,1,0-1.982-.822l-.391.943a10.636,10.636,0,0,1-4.375-4.376l.942-.391a1.073,1.073,0,1,0-.822-1.982l-.942.389a10.631,10.631,0,0,1,0-6.188l.942.389a1.073,1.073,0,1,0,.822-1.982l-.943-.391A10.636,10.636,0,0,1,22.8,18.423Z" transform="translate(0.911 1.093)"/><path class="a" d="M27.446,33.875a6.437,6.437,0,1,0-5.956-3.97,6.437,6.437,0,0,0,5.956,3.97ZM25.795,23.468a4.281,4.281,0,1,1-2.332,2.322,4.292,4.292,0,0,1,2.332-2.322Z" transform="translate(1.348 1.531)"/><path class="a" d="M17.437,11H12.073A1.073,1.073,0,0,0,11,12.073v5.364a1.073,1.073,0,0,0,2.146,0V13.146h4.292a1.073,1.073,0,0,0,0-2.146Z" transform="translate(0.619 0.802)"/></g></svg>