<svg xmlns="http://www.w3.org/2000/svg" width="68.534" height="68.534" viewBox="0 0 68.534 68.534"><defs><style>.a{fill:#0097a4;}</style></defs><path class="a" d="M90.751,61.378l2.514,1.6,2.514-1.6A23.109,23.109,0,0,0,106.53,41.794V38.954L93.265,30.511,80,38.954v2.841A23.105,23.105,0,0,0,90.751,61.378Zm3.841-1.865-1.328.845-1.327-.845a21.047,21.047,0,0,1-5.289-4.8,6.623,6.623,0,0,1,13.231,0,21.061,21.061,0,0,1-5.288,4.8ZM91.054,43.982V41.771a2.211,2.211,0,0,1,4.422,0v2.211a2.211,2.211,0,0,1-4.422,0Zm-8.843-3.815,11.054-7.033,11.054,7.033v1.627a20.96,20.96,0,0,1-2.712,10.337A8.877,8.877,0,0,0,96.6,46.852a4.381,4.381,0,0,0,1.085-2.87V41.771a4.422,4.422,0,1,0-8.843,0v2.211a4.381,4.381,0,0,0,1.085,2.87,8.88,8.88,0,0,0-5.006,5.279,20.96,20.96,0,0,1-2.712-10.337Zm0,0" transform="translate(-68.947 -26.296)"/><path class="a" d="M32,400h2.211v2.211H32Zm0,0" transform="translate(-27.578 -344.731)"/><path class="a" d="M64,400h2.211v2.211H64Zm0,0" transform="translate(-55.157 -344.731)"/><path class="a" d="M96,400h2.211v2.211H96Zm0,0" transform="translate(-82.735 -344.731)"/><path class="a" d="M63.007,13.265H61.9V0H6.632V13.265H5.527A5.533,5.533,0,0,0,0,18.792V56.375A5.533,5.533,0,0,0,5.527,61.9H19.9v4.422H15.475v2.211H53.058V66.323H48.637V61.9h14.37a5.533,5.533,0,0,0,5.527-5.527V18.792A5.533,5.533,0,0,0,63.007,13.265ZM5.527,15.475H8.843V2.211H59.691V39.794H8.843V17.686H6.632V42H61.9V15.475h1.105a3.32,3.32,0,0,1,3.316,3.316V53.058H20.355l-2.211-2.211H2.211V18.792a3.32,3.32,0,0,1,3.316-3.316Zm57.48,44.215H24.318V61.9H46.426v4.422H22.108V59.691H5.527a3.32,3.32,0,0,1-3.316-3.316V53.058H17.228l2.211,2.211H66.323v1.105a3.32,3.32,0,0,1-3.316,3.316Zm0,0"/><path class="a" d="M288,32h17.686v2.211H288Zm0,0" transform="translate(-248.206 -27.578)"/><path class="a" d="M288,64h17.686v2.211H288Zm0,0" transform="translate(-248.206 -55.157)"/><path class="a" d="M320,96h13.265v2.211H320Zm0,0" transform="translate(-275.785 -82.735)"/><path class="a" d="M288,96h2.211v2.211H288Zm0,0" transform="translate(-248.206 -82.735)"/><path class="a" d="M288,128h17.686v2.211H288Zm0,0" transform="translate(-248.206 -110.314)"/><path class="a" d="M288,160h17.686v2.211H288Zm0,0" transform="translate(-248.206 -137.892)"/><path class="a" d="M400,192h2.211v2.211H400Zm0,0" transform="translate(-344.731 -165.471)"/><path class="a" d="M288,192h13.265v2.211H288Zm0,0" transform="translate(-248.206 -165.471)"/><path class="a" d="M288,224h17.686v2.211H288Zm0,0" transform="translate(-248.206 -193.049)"/><path class="a" d="M344,256h2.211v2.211H344Zm0,0" transform="translate(-296.469 -220.628)"/><path class="a" d="M312,256h2.211v2.211H312Zm0,0" transform="translate(-268.89 -220.628)"/><path class="a" d="M376,256h2.211v2.211H376Zm0,0" transform="translate(-324.047 -220.628)"/></svg>