<svg xmlns="http://www.w3.org/2000/svg" width="69.167" height="66.285" viewBox="0 0 69.167 66.285"><defs><style>.a{fill:#0097a4;}</style></defs><path class="a" d="M29.292,50.348a1.446,1.446,0,0,1-.559-.112C28.047,49.945,12,43.011,12,28.837V16.793a1.442,1.442,0,0,1,.98-1.366l15.851-5.352a1.443,1.443,0,0,1,.922,0L45.6,15.427a1.44,1.44,0,0,1,.98,1.366V28.837c0,14.174-16.047,21.108-16.733,21.4a1.446,1.446,0,0,1-.559.112ZM14.882,17.831V28.837c0,10.905,11.686,17.171,14.41,18.482C32.012,46,43.7,39.714,43.7,28.837V17.831l-14.41-4.868Z" transform="translate(22.584 15.937)"/><path class="a" d="M22.2,27.469a.676.676,0,0,1-.078,0,1.43,1.43,0,0,1-1.046-.539l-5.764-7.2a1.441,1.441,0,0,1,2.251-1.8l4.755,5.946,8.949-8.946a1.441,1.441,0,0,1,2.038,2.038L23.221,27.046a1.435,1.435,0,0,1-1.017.424Z" transform="translate(28.23 24.406)"/><path class="a" d="M53.316,21.174H10.087A10.087,10.087,0,1,1,10.087,1h43.23a10.087,10.087,0,1,1,0,20.174ZM10.087,3.882a7.2,7.2,0,1,0,0,14.41h43.23a7.2,7.2,0,1,0,0-14.41Z" transform="translate(0 -1)"/><path class="a" d="M7.323,11.646a4.323,4.323,0,1,1,4.323-4.323A4.328,4.328,0,0,1,7.323,11.646Zm0-5.764A1.441,1.441,0,1,0,8.764,7.323,1.445,1.445,0,0,0,7.323,5.882Z" transform="translate(5.646 2.764)"/><path class="a" d="M12.323,11.646a4.323,4.323,0,1,1,4.323-4.323A4.328,4.328,0,0,1,12.323,11.646Zm0-5.764a1.441,1.441,0,1,0,1.441,1.441A1.445,1.445,0,0,0,12.323,5.882Z" transform="translate(15.056 2.764)"/><path class="a" d="M27.379,27.174H10.087A10.087,10.087,0,0,1,10.087,7h43.23a9.882,9.882,0,0,1,6.133,2.092,1.442,1.442,0,0,1-1.772,2.274,7.018,7.018,0,0,0-4.36-1.484H10.087a7.2,7.2,0,0,0,0,14.41H27.379a1.441,1.441,0,1,1,0,2.882Z" transform="translate(0 10.292)"/><path class="a" d="M7.323,17.646a4.323,4.323,0,1,1,4.323-4.323A4.328,4.328,0,0,1,7.323,17.646Zm0-5.764a1.441,1.441,0,1,0,1.441,1.441A1.445,1.445,0,0,0,7.323,11.882Z" transform="translate(5.646 14.056)"/><path class="a" d="M12.323,17.646a4.323,4.323,0,1,1,4.323-4.323A4.328,4.328,0,0,1,12.323,17.646Zm0-5.764a1.441,1.441,0,1,0,1.441,1.441A1.445,1.445,0,0,0,12.323,11.882Z" transform="translate(15.056 14.056)"/><path class="a" d="M27.379,33.174H10.087a10.087,10.087,0,0,1,0-20.174H27.379a1.441,1.441,0,0,1,0,2.882H10.087a7.2,7.2,0,0,0,0,14.41H27.379a1.441,1.441,0,1,1,0,2.882Z" transform="translate(0 21.584)"/><path class="a" d="M7.323,23.646a4.323,4.323,0,1,1,4.323-4.323A4.328,4.328,0,0,1,7.323,23.646Zm0-5.764a1.441,1.441,0,1,0,1.441,1.441A1.445,1.445,0,0,0,7.323,17.882Z" transform="translate(5.646 25.348)"/><path class="a" d="M12.323,23.646a4.323,4.323,0,1,1,4.323-4.323A4.328,4.328,0,0,1,12.323,23.646Zm0-5.764a1.441,1.441,0,1,0,1.441,1.441A1.445,1.445,0,0,0,12.323,17.882Z" transform="translate(15.056 25.348)"/></svg>