<svg xmlns="http://www.w3.org/2000/svg" width="82.5" height="67.354" viewBox="0 0 82.5 67.354"><defs><style>.a{fill:#0097a4;}</style></defs><g transform="translate(0 -47)"><g transform="translate(0 47)"><path class="a" d="M76.458,47H72.226a1.208,1.208,0,0,0,0,2.417h4.232a3.63,3.63,0,0,1,3.625,3.625V58.6H2.417V53.042a3.63,3.63,0,0,1,3.625-3.625H66.951a1.208,1.208,0,0,0,0-2.417H6.042A6.049,6.049,0,0,0,0,53.042v17.18a1.208,1.208,0,0,0,2.417,0v-9.2H80.083v39.4a3.631,3.631,0,0,1-2.417,3.418V101.28a1.208,1.208,0,0,0-2.417,0v2.761H47.7V71.25A1.049,1.049,0,0,1,48.743,70.2H74.2a1.049,1.049,0,0,1,1.047,1.047V96.064a1.208,1.208,0,0,0,2.417,0V71.25A3.468,3.468,0,0,0,74.2,67.786H48.743a3.468,3.468,0,0,0-3.464,3.464v32.791H6.042a3.63,3.63,0,0,1-3.625-3.625V75.5A1.208,1.208,0,0,0,0,75.5v24.917a6.049,6.049,0,0,0,6.042,6.042H45.278v4.431a3.468,3.468,0,0,0,3.464,3.464H74.2a3.468,3.468,0,0,0,3.464-3.464v-4.553a6.053,6.053,0,0,0,4.834-5.921V53.042A6.049,6.049,0,0,0,76.458,47Zm-1.208,63.889a1.049,1.049,0,0,1-1.047,1.047H48.743a1.049,1.049,0,0,1-1.047-1.047v-4.431H75.249Z" transform="translate(0 -47)"/><path class="a" d="M33.006,72a3.625,3.625,0,1,0,3.625-3.625A3.63,3.63,0,0,0,33.006,72Zm4.834,0a1.208,1.208,0,1,1-1.208-1.208A1.21,1.21,0,0,1,37.84,72Z" transform="translate(-27.688 -64.927)"/><path class="a" d="M91.166,72a3.625,3.625,0,1,0,3.625-3.625A3.63,3.63,0,0,0,91.166,72ZM96,72a1.208,1.208,0,1,1-1.208-1.208A1.21,1.21,0,0,1,96,72Z" transform="translate(-76.476 -64.927)"/><path class="a" d="M149.325,72a3.625,3.625,0,1,0,3.625-3.625A3.63,3.63,0,0,0,149.325,72Zm4.834,0a1.208,1.208,0,1,1-1.208-1.208A1.21,1.21,0,0,1,154.159,72Z" transform="translate(-125.264 -64.927)"/><path class="a" d="M363.009,199h-5.8a1.208,1.208,0,0,0,0,2.417h5.8a1.208,1.208,0,0,0,0-2.417Z" transform="translate(-298.637 -174.508)"/><path class="a" d="M317.157,274.2a1.209,1.209,0,0,0-1.709,0l-4.588,4.588a1.208,1.208,0,0,0,0,1.709l4.527,4.527a1.208,1.208,0,1,0,1.709-1.709l-3.673-3.673,3.733-3.733A1.209,1.209,0,0,0,317.157,274.2Z" transform="translate(-260.474 -237.29)"/><path class="a" d="M409.436,285.02a1.209,1.209,0,0,0,1.709,0l4.527-4.527a1.208,1.208,0,0,0,0-1.709l-4.588-4.588a1.209,1.209,0,1,0-1.709,1.709l3.733,3.733-3.673,3.673a1.208,1.208,0,0,0,0,1.709Z" transform="translate(-343.115 -237.29)"/><path class="a" d="M364.241,257.855a1.208,1.208,0,0,0-1.559.7l-5.425,14.292a1.208,1.208,0,1,0,2.26.858l5.425-14.292A1.208,1.208,0,0,0,364.241,257.855Z" transform="translate(-299.626 -223.813)"/><path class="a" d="M89.276,163.289a1.208,1.208,0,0,0,1.208-1.208v-6.448a1.208,1.208,0,0,0-1.208-1.208H87.9a1.208,1.208,0,0,0,0,2.417h.17v5.239A1.208,1.208,0,0,0,89.276,163.289Z" transform="translate(-72.721 -137.114)"/><path class="a" d="M45.124,245.295a1.208,1.208,0,0,0,1.208-1.208v-6.448a1.208,1.208,0,0,0-1.208-1.208H43.745a1.208,1.208,0,0,0,0,2.417h.17v5.239A1.208,1.208,0,0,0,45.124,245.295Z" transform="translate(-35.683 -205.907)"/><path class="a" d="M41.389,159.664v-2.982a3.073,3.073,0,0,0-6.146,0v2.982a3.073,3.073,0,0,0,6.146,0Zm-2.417,0a.656.656,0,0,1-1.312,0v-2.982a.656.656,0,0,1,1.312,0Z" transform="translate(-29.564 -136.431)"/><path class="a" d="M83.671,241.668a3.073,3.073,0,1,0,6.146,0v-2.982a3.073,3.073,0,1,0-6.146,0Zm2.417-2.982a.656.656,0,0,1,1.312,0v2.982a.656.656,0,0,1-1.312,0Z" transform="translate(-70.189 -205.221)"/><path class="a" d="M137.406,245.295a1.208,1.208,0,0,0,1.208-1.208v-6.448a1.208,1.208,0,0,0-1.208-1.208h-1.378a1.208,1.208,0,1,0,0,2.417h.17v5.239A1.208,1.208,0,0,0,137.406,245.295Z" transform="translate(-113.095 -205.907)"/><path class="a" d="M229.688,245.295a1.208,1.208,0,0,0,1.208-1.208v-6.448a1.208,1.208,0,0,0-1.208-1.208H228.31a1.208,1.208,0,0,0,0,2.417h.17v5.239A1.208,1.208,0,0,0,229.688,245.295Z" transform="translate(-190.508 -205.907)"/><path class="a" d="M175.953,241.668a3.073,3.073,0,1,0,6.146,0v-2.982a3.073,3.073,0,1,0-6.146,0Zm2.417-2.982a.656.656,0,0,1,1.312,0v2.982a.656.656,0,0,1-1.312,0Z" transform="translate(-147.601 -205.221)"/><path class="a" d="M181.558,163.289a1.208,1.208,0,0,0,1.208-1.208v-6.448a1.208,1.208,0,0,0-1.208-1.208H180.18a1.208,1.208,0,0,0,0,2.417h.17v5.239A1.208,1.208,0,0,0,181.558,163.289Z" transform="translate(-150.133 -137.114)"/><path class="a" d="M133.671,159.664v-2.982a3.073,3.073,0,0,0-6.146,0v2.982a3.073,3.073,0,0,0,6.146,0Zm-2.417,0a.656.656,0,0,1-1.312,0v-2.982a.656.656,0,0,1,1.312,0Z" transform="translate(-106.977 -136.431)"/><path class="a" d="M225.952,159.664v-2.982a3.073,3.073,0,0,0-6.146,0v2.982a3.073,3.073,0,0,0,6.146,0Zm-2.417,0a.656.656,0,0,1-1.312,0v-2.982a.656.656,0,0,1,1.312,0Z" transform="translate(-184.388 -136.431)"/><path class="a" d="M89.276,327.706a1.208,1.208,0,0,0,1.208-1.208v-6.448a1.208,1.208,0,0,0-1.208-1.208H87.9a1.208,1.208,0,0,0,0,2.417h.17V326.5A1.208,1.208,0,0,0,89.276,327.706Z" transform="translate(-72.721 -275.038)"/><path class="a" d="M35.242,324.081a3.073,3.073,0,0,0,6.146,0V321.1a3.073,3.073,0,1,0-6.146,0Zm2.417-2.982a.656.656,0,1,1,1.312,0v2.982a.656.656,0,0,1-1.312,0Z" transform="translate(-29.563 -274.355)"/><path class="a" d="M181.558,327.706a1.208,1.208,0,0,0,1.208-1.208v-6.448a1.208,1.208,0,0,0-1.208-1.208H180.18a1.208,1.208,0,0,0,0,2.417h.17V326.5A1.208,1.208,0,0,0,181.558,327.706Z" transform="translate(-150.133 -275.038)"/><path class="a" d="M127.524,324.081a3.073,3.073,0,0,0,6.146,0V321.1a3.073,3.073,0,1,0-6.146,0Zm2.417-2.982a.656.656,0,1,1,1.312,0v2.982a.656.656,0,0,1-1.312,0Z" transform="translate(-106.976 -274.355)"/><path class="a" d="M219.806,324.081a3.073,3.073,0,0,0,6.146,0V321.1a3.073,3.073,0,1,0-6.146,0Zm2.417-2.982a.656.656,0,1,1,1.312,0v2.982a.656.656,0,0,1-1.312,0Z" transform="translate(-184.388 -274.355)"/></g></g></svg>