<svg xmlns="http://www.w3.org/2000/svg" width="72.928" height="72.928" viewBox="0 0 72.928 72.928"><defs><style>.a{fill:#0097a4;}</style></defs><g transform="translate(-2 -2)"><path class="a" d="M37.623,30.035l0-.013-.1-.018a5.99,5.99,0,0,0-1.461-.253l-.051-.009v0c-.073,0-.14-.022-.213-.022h-.027a6.014,6.014,0,0,0,1.247-3.646,6.077,6.077,0,1,0-12.155,0,6.014,6.014,0,0,0,1.247,3.646h-.027A6.089,6.089,0,0,0,20,35.806v2.426a1.216,1.216,0,0,0,1.215,1.215H40.663a1.216,1.216,0,0,0,1.215-1.215V35.806a6.068,6.068,0,0,0-4.255-5.771Zm-10.33-3.958a3.646,3.646,0,1,1,3.646,3.646A3.651,3.651,0,0,1,27.293,26.077ZM39.447,37.016H22.431V35.806a3.656,3.656,0,0,1,3.651-3.651H35.7l1.341.232a3.646,3.646,0,0,1,2.41,3.419Z" transform="translate(3.878 3.878)"/><path class="a" d="M6.692,39.662l2.83,12.723a4.848,4.848,0,1,0,4.848,8.378l8,7.339a6.021,6.021,0,0,0-.921,3.178v2.431a1.216,1.216,0,0,0,1.215,1.215H39.679a1.216,1.216,0,0,0,1.215-1.215V71.738L52.781,58.146,68.453,73.818a3.766,3.766,0,0,0,2.683,1.11,3.789,3.789,0,0,0,3.792-3.792,3.768,3.768,0,0,0-1.11-2.683l-16.03-16.03,7.967-9.1h7.956a1.216,1.216,0,0,0,1.215-1.215V39.679a6.079,6.079,0,0,0-4.985-5.967,6.013,6.013,0,0,0,1.338-3.757,6.032,6.032,0,0,0-7.43-5.913l-1.183-2.6h4.966a1.216,1.216,0,0,0,1.215-1.215V17.8a6.079,6.079,0,0,0-4.985-5.967A6.013,6.013,0,0,0,65.2,8.077a6.065,6.065,0,0,0-12.063-.9L17.552,9.046a4.847,4.847,0,1,0-6.929,5.709l-3.8,15.2a4.853,4.853,0,0,0-.135,9.7Zm8.472-24.856,6.593,7.318a18.162,18.162,0,0,0-5.171,12.693c0,.038,0,.073.006.109L11.619,33.82A4.859,4.859,0,0,0,9.18,30.571l3.8-15.2a4.8,4.8,0,0,0,2.188-.56Zm2.54-3.335L53.267,9.6a6.012,6.012,0,0,0,1.121,2.232A6.079,6.079,0,0,0,49.4,17.8V19.89l-2.1,1.679A18.131,18.131,0,0,0,23.566,20.5l-6.581-7.3a4.839,4.839,0,0,0,.718-1.725ZM34.817,50.618a15.8,15.8,0,1,1,15.8-15.8A15.819,15.819,0,0,1,34.817,50.618ZM11.475,36.278,16.8,37.465A18.25,18.25,0,0,0,31.531,52.737l-.321,2.747c-.013,0-.026,0-.039,0a6.084,6.084,0,0,0-6.077,6.077,6.013,6.013,0,0,0,1.338,3.757,6.013,6.013,0,0,0-2.4,1.012L16,58.96a4.812,4.812,0,0,0-4.107-7.109L9.063,39.128a4.851,4.851,0,0,0,2.411-2.849ZM31.171,65.2a3.646,3.646,0,1,1,3.646-3.646A3.651,3.651,0,0,1,31.171,65.2ZM11.724,59.127A2.431,2.431,0,1,1,14.155,56.7,2.433,2.433,0,0,1,11.724,59.127ZM38.464,72.5H23.878V71.281a3.651,3.651,0,0,1,3.646-3.646h7.293a3.651,3.651,0,0,1,3.646,3.646Zm1.843-3.78a6.076,6.076,0,0,0-4.4-3.4,6.013,6.013,0,0,0,1.338-3.757,6.083,6.083,0,0,0-3.65-5.564l.349-2.988c.29.013.576.044.87.044A18.117,18.117,0,0,0,44.732,50.1l6.326,6.326ZM72.5,71.135a1.371,1.371,0,0,1-.4.964,1.41,1.41,0,0,1-1.928,0L46.694,48.621a18.5,18.5,0,0,0,1.928-1.928L72.1,70.172a1.354,1.354,0,0,1,.4.964ZM56.065,50.7,50.1,44.732a18.116,18.116,0,0,0,2.6-6.379l2.865.5a5.971,5.971,0,0,0-.084.825V42.11A1.216,1.216,0,0,0,56.7,43.326h5.828ZM72.5,39.679v1.215H57.911V39.679a3.651,3.651,0,0,1,3.646-3.646H68.85A3.651,3.651,0,0,1,72.5,39.679ZM68.85,29.956A3.646,3.646,0,1,1,65.2,26.309,3.651,3.651,0,0,1,68.85,29.956Zm-7.21-4.9a6,6,0,0,0-1.175,8.657,6.066,6.066,0,0,0-4.079,2.819l-3.392-.594c.022-.372.056-.741.056-1.119a18.139,18.139,0,0,0-4.078-11.469l2.377-1.9H60ZM66.42,17.8v1.215H51.834V17.8a3.651,3.651,0,0,1,3.646-3.646h7.293A3.651,3.651,0,0,1,66.42,17.8ZM59.127,4.431A3.646,3.646,0,1,1,55.48,8.077,3.651,3.651,0,0,1,59.127,4.431ZM12.939,8.077a2.431,2.431,0,1,1-2.431,2.431A2.433,2.433,0,0,1,12.939,8.077ZM6.862,32.387a2.431,2.431,0,1,1-2.431,2.431A2.433,2.433,0,0,1,6.862,32.387Z"/></g></svg>