<svg xmlns="http://www.w3.org/2000/svg" width="80" height="80" viewBox="0 0 80 80"><defs><style>.a{fill:#0097a4;}</style></defs><g transform="translate(0)"><path class="a" d="M79.382,71.1l-1.141-1.141a1.172,1.172,0,1,0-1.657,1.657l.975.976-4.972,4.972-8.452-8.452,4.972-4.972,3.943,3.943a1.172,1.172,0,0,0,1.657-1.657l-4.77-4.77,0,0-3.315-3.315,0,0-2.925-2.925a2.109,2.109,0,0,0-2.983,0l-.166.166-4.193-4.194a31.537,31.537,0,0,0,6.213-13.031H70.82a1.172,1.172,0,0,0,0-2.344H62.979q.155-1.118.231-2.26h13.2a1.172,1.172,0,1,0,0-2.344H63.279q-.008-1.137-.095-2.26h7.636a1.172,1.172,0,0,0,0-2.344h-7.9a31.258,31.258,0,0,0-6.454-14.78,1.172,1.172,0,1,0-1.838,1.455,28.991,28.991,0,0,1,6.313,18.169,29.3,29.3,0,1,1-9.6-21.686A1.172,1.172,0,1,0,52.915,8.22,31.641,31.641,0,1,0,25.663,62.712v7.906a1.172,1.172,0,1,0,2.344,0V63.071q1.119.128,2.26.178v12.88a1.172,1.172,0,1,0,2.344,0V63.265q1.14-.034,2.26-.147v7.5a1.172,1.172,0,1,0,2.344,0V62.79a31.516,31.516,0,0,0,14.165-6.439l4.194,4.193-.166.166a2.109,2.109,0,0,0,0,2.983l2.926,2.926,0,0,3.315,3.315,0,0L71.1,79.382a2.109,2.109,0,0,0,2.983,0l5.3-5.3a2.109,2.109,0,0,0,0-2.983ZM54.816,53.158l4.071,4.072L57.23,58.887l-4.072-4.071q.859-.8,1.658-1.658ZM62.478,67.45l-1.657-1.657,4.972-4.972,1.657,1.657ZM62.2,57.23l1.933,1.933-4.972,4.972L57.23,62.2Z" transform="translate(0 0)"/><path class="a" d="M40.626,78.405a27.489,27.489,0,0,0,16.319,5.5,26.953,26.953,0,0,0,0-53.906,26.635,26.635,0,0,0-19,7.9,27.231,27.231,0,0,0-7.958,19.036,26.343,26.343,0,0,0,6.781,17.938,1.172,1.172,0,1,0,1.743-1.567,24,24,0,0,1-6.18-16.346,24.9,24.9,0,0,1,7.275-17.407,24.306,24.306,0,0,1,17.335-7.215,24.609,24.609,0,0,1,.014,49.219,25.152,25.152,0,0,1-14.925-5.031,1.172,1.172,0,1,0-1.408,1.873Z" transform="translate(-25.304 -25.312)"/><path class="a" d="M112,68.5h-8.125a1.8,1.8,0,0,0-1.8,1.8v4.141H94.5a1.8,1.8,0,0,0-1.8,1.8V88.813H91.134a1.172,1.172,0,0,0,0,2.344H124.74a1.172,1.172,0,1,0,0-2.344h-1.568V82.172a1.8,1.8,0,0,0-1.8-1.8H113.8V70.3A1.8,1.8,0,0,0,112,68.5ZM95.046,76.781h7.031V88.813H95.046Zm9.375-5.938h7.031V88.813h-7.031Zm16.406,11.875v6.094H113.8V82.719Z" transform="translate(-75.905 -57.797)"/><path class="a" d="M142.478,238.434h-5.517l-2.506-6.407a1.172,1.172,0,0,0-2.19.02l-3.425,9.236-2.394-6.785a1.172,1.172,0,0,0-2.128-.182l-2.3,4.118h-5.5a1.172,1.172,0,1,0,0,2.344h6.19a1.172,1.172,0,0,0,1.023-.6l1.369-2.452,2.608,7.392a1.172,1.172,0,0,0,1.1.782h.01a1.172,1.172,0,0,0,1.1-.765l3.482-9.389,1.677,4.287a1.172,1.172,0,0,0,1.091.745h6.317a1.172,1.172,0,0,0,0-2.344Z" transform="translate(-97.321 -195.144)"/></g></svg>