<svg xmlns="http://www.w3.org/2000/svg" width="72.297" height="72.295" viewBox="0 0 72.297 72.295"><defs><style>.a{fill:#0097a4;}</style></defs><g transform="translate(0 0)"><path class="a" d="M15.844,17.049a3.615,3.615,0,0,0,3.615-3.615V8.615A3.615,3.615,0,0,0,15.844,5H8.615A3.615,3.615,0,0,0,5,8.615v4.82a3.615,3.615,0,0,0,3.615,3.615Zm0-2.41H12.229v-2.41h4.82v1.2A1.2,1.2,0,0,1,15.844,14.639Zm1.2-6.025v1.2h-4.82V7.41h3.615A1.2,1.2,0,0,1,17.049,8.615ZM8.615,7.41h1.2V9.82H7.41v-1.2A1.2,1.2,0,0,1,8.615,7.41Zm-1.2,6.025v-1.2H9.82v2.41h-1.2A1.2,1.2,0,0,1,7.41,13.434Z" transform="translate(1.025 1.025)"/><path class="a" d="M8.2,21a1.2,1.2,0,0,0,0,2.41h7.229a1.2,1.2,0,1,0,0-2.41Z" transform="translate(1.434 4.303)"/><path class="a" d="M19.41,21H18.2a1.2,1.2,0,1,0,0,2.41h1.2a1.2,1.2,0,1,0,0-2.41Z" transform="translate(3.483 4.303)"/><path class="a" d="M10.615,27H8.2a1.2,1.2,0,1,0,0,2.41h2.41a1.2,1.2,0,0,0,0-2.41Z" transform="translate(1.434 5.533)"/><path class="a" d="M20.025,27H15.2a1.2,1.2,0,1,0,0,2.41h4.82a1.2,1.2,0,1,0,0-2.41Z" transform="translate(2.869 5.533)"/><path class="a" d="M37.819,15.639a4.79,4.79,0,0,0,3.615-1.665,4.82,4.82,0,1,0,0-6.309,4.81,4.81,0,1,0-3.615,7.974ZM45.049,8.41a2.41,2.41,0,1,1-2.41,2.41A2.41,2.41,0,0,1,45.049,8.41Zm-7.229,0a2.41,2.41,0,1,1-2.41,2.41A2.41,2.41,0,0,1,37.819,8.41Z" transform="translate(6.762 1.229)"/><path class="a" d="M68.858,25.292a40.425,40.425,0,0,1-6.2-.777V8.434A8.444,8.444,0,0,0,54.221,0H8.434A8.444,8.444,0,0,0,0,8.434v25.3a8.444,8.444,0,0,0,8.434,8.434H26.508v2.309a3.622,3.622,0,0,0,.037.519c.3,2.119,3.507,20.893,21.688,27.1a3.642,3.642,0,0,0,2.339,0c18.18-6.209,21.382-24.983,21.688-27.111a3.68,3.68,0,0,0,.036-.514V28.918a3.615,3.615,0,0,0-3.439-3.626ZM8.434,39.762A6.032,6.032,0,0,1,2.41,33.738V8.434A6.032,6.032,0,0,1,8.434,2.41H54.221a6.032,6.032,0,0,1,6.025,6.025v15.49a24.179,24.179,0,0,1-8.555-4.217,3.628,3.628,0,0,0-4.571,0C41.619,24.125,34,25.1,29.948,25.29a3.615,3.615,0,0,0-3.44,3.628V39.762Zm61.45,4.718a1.393,1.393,0,0,1-.012.176c-.284,1.97-3.259,19.42-20.082,25.165a1.216,1.216,0,0,1-.78,0c-16.822-5.745-19.8-23.191-20.08-25.161a1.286,1.286,0,0,1-.013-.18V28.918A1.2,1.2,0,0,1,30.057,27.7c4.345-.2,12.531-1.265,18.568-6.111a1.221,1.221,0,0,1,1.554,0c6.033,4.846,14.218,5.9,18.568,6.111a1.2,1.2,0,0,1,1.139,1.218Z" transform="translate(0 0)"/><path class="a" d="M61.063,25.795a35.481,35.481,0,0,1-16.3-5.415,1.2,1.2,0,0,0-1.362,0,35.481,35.481,0,0,1-16.312,5.415A1.2,1.2,0,0,0,26,26.994V40.116a1.325,1.325,0,0,0,.013.182c.435,2.845,3.323,17.31,17.636,22.692a1.2,1.2,0,0,0,.843,0C59.135,57.489,61.87,42.043,62.134,40.3a1.273,1.273,0,0,0,.013-.18V26.994A1.2,1.2,0,0,0,61.063,25.795ZM59.738,40.026c-.31,1.948-2.9,15.473-15.664,20.545C31.325,55.51,28.722,41.974,28.41,40.022V28.074a37.727,37.727,0,0,0,15.664-5.256,37.727,37.727,0,0,0,15.664,5.256Z" transform="translate(5.328 4.133)"/><path class="a" d="M36.054,38.785a1.2,1.2,0,0,0-1.7,1.7l4.82,4.82a1.2,1.2,0,0,0,.852.353h.06a1.2,1.2,0,0,0,.872-.441L51.8,31.966a1.2,1.2,0,0,0-1.865-1.525l-10,12.224Z" transform="translate(6.97 6.15)"/></g></svg>