<svg xmlns="http://www.w3.org/2000/svg" width="74.586" height="74.168" viewBox="0 0 74.586 74.168"><defs><style>.a{fill:#0097a4;}</style></defs><g transform="translate(0 -1.432)"><path class="a" d="M64.842,50.956,64.8,46.087a4.429,4.429,0,0,0-4.424-4.424h-4.3V33.2a37.262,37.262,0,0,0-8.9-24.16,1.088,1.088,0,1,0-1.655,1.412,35.088,35.088,0,0,1,8.147,18.7L41.932,25.206a14.611,14.611,0,0,0-9.279,0L20.93,29.158A35.26,35.26,0,0,1,31.421,7.96l3.528-3.4a3.366,3.366,0,0,1,4.687,0l2.406,2.318a1.088,1.088,0,1,0,1.51-1.567L41.146,2.994a5.534,5.534,0,0,0-7.706,0l-3.528,3.4a37.233,37.233,0,0,0-11.4,26.81v8.46h-4.3A4.429,4.429,0,0,0,9.79,46.087v4.829A27.664,27.664,0,0,0,0,72.056v1.731A1.815,1.815,0,0,0,1.813,75.6h4.2a1.088,1.088,0,0,0,0-2.176H2.175V72.056A25.485,25.485,0,0,1,9.79,53.86V71.177A4.429,4.429,0,0,0,14.214,75.6H72.773a1.815,1.815,0,0,0,1.813-1.813V72.056a27.663,27.663,0,0,0-9.744-21.1ZM53.9,41.664H47.182a12.278,12.278,0,0,0,2.353-7.212V30.065l4.319,1.456C53.881,32.08,53.9,41.664,53.9,41.664Zm-12.658-14.4.025.008a1.886,1.886,0,1,0,3.419,1.152l2.679.9v5.12a10.1,10.1,0,0,1-3.048,7.212H30.274a10.1,10.1,0,0,1-3.048-7.212v-5.12l2.424-.817a1.886,1.886,0,1,0,3.463-1.167l.236-.079a12.421,12.421,0,0,1,7.89,0ZM20.732,31.52l4.318-1.455v4.387A12.287,12.287,0,0,0,27.4,41.664H20.69s.015-9.584.042-10.143Zm51.678,41.9H64.18a4.4,4.4,0,0,0,.616-2.248V66.92a1.088,1.088,0,0,0-2.176,0v4.257a2.251,2.251,0,0,1-2.248,2.248H14.214a2.251,2.251,0,0,1-2.248-2.248V46.087a2.251,2.251,0,0,1,2.248-2.248H60.372A2.253,2.253,0,0,1,62.62,46.1l.145,15.446a1.088,1.088,0,0,0,1.087,1.077h.01a1.088,1.088,0,0,0,1.077-1.1l-.071-7.588a25.483,25.483,0,0,1,7.54,18.121v1.369Z" transform="translate(0 0)"/><path class="a" d="M231.357,239.281h5.321a1.088,1.088,0,1,0,0-2.176h-5.321a1.088,1.088,0,0,0,0,2.176Z" transform="translate(-196.725 -201.341)"/></g></svg>