<svg xmlns="http://www.w3.org/2000/svg" width="68.567" height="73.325" viewBox="0 0 68.567 73.325"><defs><style>.a{fill:#0097a4;}</style></defs><g transform="translate(-16.643)"><path class="a" d="M61.432,45.966a1.072,1.072,0,0,0-1.072,1.072V64.726A6.463,6.463,0,0,1,53.9,71.181H25.243a6.463,6.463,0,0,1-6.455-6.455V8.6a6.463,6.463,0,0,1,6.455-6.455H53.9A6.463,6.463,0,0,1,60.36,8.6v6.3a1.072,1.072,0,1,0,2.144,0V8.6A8.609,8.609,0,0,0,53.9,0H25.243a8.609,8.609,0,0,0-8.6,8.6V64.726a8.609,8.609,0,0,0,8.6,8.6H53.9a8.609,8.609,0,0,0,8.6-8.6V47.038a1.072,1.072,0,0,0-1.072-1.072Z" transform="translate(0 0)"/><path class="a" d="M47.714,123.123a1.072,1.072,0,0,0-1.072,1.072v46.052a4.316,4.316,0,0,0,4.311,4.311H79.615a4.315,4.315,0,0,0,4.311-4.311V154.774a1.072,1.072,0,0,0-2.144,0v15.473a2.169,2.169,0,0,1-2.166,2.166H50.953a2.169,2.169,0,0,1-2.166-2.166V124.2A1.072,1.072,0,0,0,47.714,123.123Z" transform="translate(-25.71 -105.521)"/><path class="a" d="M75.786,34.646l1.622-2.5h2.207a2.169,2.169,0,0,1,2.166,2.166v6.3a1.072,1.072,0,1,0,2.144,0v-6.3A4.316,4.316,0,0,0,79.615,30h-2.3a1.958,1.958,0,0,0-1.649.9l-1.675,2.583a.1.1,0,0,1-.082.045H56.664a.1.1,0,0,1-.082-.045L54.906,30.9a1.958,1.958,0,0,0-1.649-.9h-2.3a4.316,4.316,0,0,0-4.311,4.311v5.505a1.072,1.072,0,1,0,2.144,0V34.311a2.169,2.169,0,0,1,2.166-2.166H53.16l1.623,2.5a2.234,2.234,0,0,0,1.882,1.022H73.9A2.235,2.235,0,0,0,75.786,34.646Z" transform="translate(-25.71 -25.711)"/><path class="a" d="M143.89,30.144a1.072,1.072,0,1,0,0-2.144H133.344a1.072,1.072,0,1,0,0,2.144Z" transform="translate(-99.099 -23.997)"/><path class="a" d="M257.63,126.751h-.81a1.072,1.072,0,1,0,0,2.144h.81a2.51,2.51,0,0,1,2.507,2.507V147.63a2.51,2.51,0,0,1-2.507,2.507H236.067a1.072,1.072,0,0,0-.947.569l-.885,1.664-.839-1.647a1.072,1.072,0,0,0-.955-.586H227.9a2.51,2.51,0,0,1-2.507-2.507v-8.937a1.072,1.072,0,0,0-2.144,0v8.937a4.656,4.656,0,0,0,4.651,4.651h3.881l.655,1.286a2.007,2.007,0,0,0,1.776,1.1h.018a2.007,2.007,0,0,0,1.777-1.068l.7-1.318h20.92a4.657,4.657,0,0,0,4.651-4.651V131.4a4.657,4.657,0,0,0-4.651-4.651Z" transform="translate(-177.072 -108.631)"/><path class="a" d="M223.252,131.4v2.721a1.072,1.072,0,1,0,2.144,0V131.4A2.51,2.51,0,0,1,227.9,128.9h24.348a1.072,1.072,0,1,0,0-2.144H227.9A4.657,4.657,0,0,0,223.252,131.4Z" transform="translate(-177.072 -108.631)"/><path class="a" d="M317.73,164.86a1.072,1.072,0,0,0,0-2.144h-.8a6.979,6.979,0,0,0-1.276-3.069l.567-.567a1.072,1.072,0,0,0-1.516-1.516l-.567.567a6.977,6.977,0,0,0-3.069-1.276v-.8a1.072,1.072,0,1,0-2.144,0v.8a6.978,6.978,0,0,0-3.069,1.276l-.567-.567a1.072,1.072,0,1,0-1.516,1.516l.567.567a6.978,6.978,0,0,0-1.276,3.069h-.8a1.072,1.072,0,0,0,0,2.144h.8a6.979,6.979,0,0,0,1.276,3.069l-.567.567a1.072,1.072,0,0,0,1.517,1.516l.567-.567a6.978,6.978,0,0,0,3.069,1.276v.8a1.072,1.072,0,0,0,2.144,0v-.8a6.977,6.977,0,0,0,3.069-1.276l.567.567a1.072,1.072,0,0,0,1.517-1.516l-.567-.567a6.977,6.977,0,0,0,1.276-3.069h.8Zm-7.731,3.8a4.871,4.871,0,1,1,4.871-4.871A4.876,4.876,0,0,1,310,168.658Z" transform="translate(-243.874 -132.828)"/><path class="a" d="M342.032,198.4h-.456a1.072,1.072,0,0,0,0,2.144h.456a1.072,1.072,0,0,0,0-2.144Z" transform="translate(-277.561 -170.037)"/><path class="a" d="M365.044,220.185h-.491a1.072,1.072,0,0,0,0,2.144h.491a1.072,1.072,0,1,0,0-2.144Z" transform="translate(-297.254 -188.707)"/><path class="a" d="M140.179,334.574l-.6-4.441a7.525,7.525,0,0,0-14.914,0l-.6,4.441-.339.607a2.051,2.051,0,0,0,1.79,3.052h3.166v.457a3.441,3.441,0,1,0,6.881,0v-.457h3.166a2.051,2.051,0,0,0,1.79-3.052Zm-6.761,4.116a1.3,1.3,0,0,1-2.592,0v-.457h2.592v.457Zm1.072-2.6h-8.816l.361-.646a1.075,1.075,0,0,0,.127-.379l.628-4.642a5.38,5.38,0,0,1,10.663,0l.628,4.642a1.071,1.071,0,0,0,.127.379l.361.646Z" transform="translate(-91.547 -277.353)"/><path class="a" d="M112.911,309.414a3.623,3.623,0,0,0-3.618,3.618,1.072,1.072,0,1,0,2.144,0,1.476,1.476,0,0,1,1.474-1.474,1.072,1.072,0,0,0,0-2.144Z" transform="translate(-79.405 -265.18)"/><path class="a" d="M85.142,277.013a8.26,8.26,0,0,0-8.251,8.251,1.072,1.072,0,0,0,2.144,0,6.113,6.113,0,0,1,6.106-6.106,1.072,1.072,0,0,0,0-2.144Z" transform="translate(-51.635 -237.411)"/></g></svg>