<svg xmlns="http://www.w3.org/2000/svg" width="69.372" height="69.372" viewBox="0 0 69.372 69.372"><defs><style>.a{fill:#0097a4;}</style></defs><g transform="translate(-1 -1)"><path class="a" d="M31.357,20.665h2.238V18.427a3.357,3.357,0,0,0,0-6.713H31.357a1.119,1.119,0,0,1,0-2.238h3.357v1.119h2.238V7.238H33.595V5H31.357V7.238a3.357,3.357,0,1,0,0,6.713h2.238a1.119,1.119,0,0,1,0,2.238H30.238V15.07H28v3.357h3.357Z" transform="translate(3.211 0.476)"/><path class="a" d="M68.134,41.281H61.421V25.616H65.9V22.773L47.756,10.912a12.3,12.3,0,0,0-24.139,0L5.476,22.773v2.843H9.951V41.281H3.238A2.24,2.24,0,0,0,1,43.519v4.476a2.24,2.24,0,0,0,2.238,2.238v20.14h64.9V50.232a2.24,2.24,0,0,0,2.238-2.238V43.519a2.24,2.24,0,0,0-2.238-2.238Zm-25.394-17.9a12.292,12.292,0,0,0,5.232-9.652l14.761,9.652ZM35.686,3.238a10.07,10.07,0,1,1-10.07,10.07A10.082,10.082,0,0,1,35.686,3.238ZM23.4,13.726a12.292,12.292,0,0,0,5.232,9.652H8.639Zm-11.21,11.89H59.183V41.281H43l-2.909-2.238h5.662V27.854H36.805v8.951H34.567V27.854H25.616V39.043h5.662l-2.909,2.238H12.189ZM39.043,68.134H32.329V60.3a3.357,3.357,0,0,1,6.713,0ZM35.686,54.708A5.6,5.6,0,0,0,30.092,60.3v7.832H27.854V52.47H43.519V68.134H41.281V60.3A5.6,5.6,0,0,0,35.686,54.708ZM25.616,52.47V68.134H23.378V52.47Zm3.062-2.238,7.008-5.909,7.008,5.909ZM45.756,52.47h2.238V68.134H45.756Zm.408-2.238L35.686,41.4,25.208,50.232H21.14v-.568L34.948,39.043h1.477L50.232,49.664v.568ZM32.329,36.805H27.854V30.092h4.476Zm6.713,0V30.092h4.476v6.713ZM3.238,43.519H25.459l-5.818,4.476H3.238Zm2.238,6.713H18.9V52.47H21.14V68.134H5.476ZM65.9,68.134H50.232V52.47H52.47V50.232H65.9Zm2.238-20.14h-16.4l-5.818-4.476H68.134Z"/><path class="a" d="M51.951,25H43V36.189h8.951Zm-2.238,8.951H45.238V27.238h4.476Z" transform="translate(4.994 2.854)"/><path class="a" d="M13,36.189h8.951V25H13Zm2.238-8.951h4.476v6.713H15.238Z" transform="translate(1.427 2.854)"/><path class="a" d="M58.189,60.427V47H47V60.427ZM49.238,49.238h6.713v8.951H49.238Z" transform="translate(5.47 5.47)"/><path class="a" d="M7,60.427H18.189V47H7ZM9.238,49.238h6.713v8.951H9.238Z" transform="translate(0.713 5.47)"/></g></svg>