<svg xmlns="http://www.w3.org/2000/svg" width="26.5" height="21.635" viewBox="0 0 26.5 21.635"><defs><style>.a{fill:currentColor;}</style></defs><g transform="translate(0 -47)"><g transform="translate(0 47)"><path class="a" d="M24.559,47H23.2a.388.388,0,0,0,0,.776h1.359a1.166,1.166,0,0,1,1.165,1.165v1.786H.776V48.941a1.166,1.166,0,0,1,1.165-1.165H21.505a.388.388,0,0,0,0-.776H1.941A1.943,1.943,0,0,0,0,48.941v5.518a.388.388,0,1,0,.776,0V51.5H25.724V64.158a1.166,1.166,0,0,1-.776,1.1v-.82a.388.388,0,0,0-.776,0v.887H15.32V54.79a.337.337,0,0,1,.336-.336h8.178a.337.337,0,0,1,.336.336v7.97a.388.388,0,0,0,.776,0V54.79a1.114,1.114,0,0,0-1.113-1.113H15.657a1.114,1.114,0,0,0-1.113,1.113V65.322H1.941A1.166,1.166,0,0,1,.776,64.158v-8a.388.388,0,0,0-.776,0v8A1.943,1.943,0,0,0,1.941,66.1h12.6v1.423a1.114,1.114,0,0,0,1.113,1.113h8.178a1.114,1.114,0,0,0,1.113-1.113V66.06a1.944,1.944,0,0,0,1.553-1.9V48.941A1.943,1.943,0,0,0,24.559,47Zm-.388,20.522a.337.337,0,0,1-.336.336H15.657a.337.337,0,0,1-.336-.336V66.1h8.851Z" transform="translate(0 -47)"/><path class="a" d="M33.006,69.536a1.165,1.165,0,1,0,1.165-1.165A1.166,1.166,0,0,0,33.006,69.536Zm1.553,0a.388.388,0,1,1-.388-.388A.389.389,0,0,1,34.559,69.536Z" transform="translate(-31.298 -67.265)"/><path class="a" d="M91.166,69.536a1.165,1.165,0,1,0,1.165-1.165A1.166,1.166,0,0,0,91.166,69.536Zm1.553,0a.388.388,0,1,1-.388-.388A.389.389,0,0,1,92.719,69.536Z" transform="translate(-86.447 -67.265)"/><path class="a" d="M149.325,69.536a1.165,1.165,0,1,0,1.165-1.165A1.166,1.166,0,0,0,149.325,69.536Zm1.553,0a.388.388,0,1,1-.388-.388A.389.389,0,0,1,150.878,69.536Z" transform="translate(-141.596 -67.265)"/><path class="a" d="M358.251,199h-1.863a.388.388,0,0,0,0,.776h1.863a.388.388,0,0,0,0-.776Z" transform="translate(-337.574 -191.133)"/><path class="a" d="M312.643,273.956a.388.388,0,0,0-.549,0l-1.474,1.474a.388.388,0,0,0,0,.549l1.454,1.454a.388.388,0,1,0,.549-.549l-1.18-1.18,1.2-1.2a.388.388,0,0,0,0-.549Z" transform="translate(-294.435 -262.101)"/><path class="a" d="M409.154,277.433a.388.388,0,0,0,.549,0l1.454-1.454a.388.388,0,0,0,0-.549l-1.474-1.474a.388.388,0,1,0-.549.549l1.2,1.2-1.18,1.18A.388.388,0,0,0,409.154,277.433Z" transform="translate(-387.851 -262.101)"/><path class="a" d="M359.447,257.8a.388.388,0,0,0-.5.225l-1.743,4.591a.388.388,0,1,0,.726.275l1.743-4.591A.388.388,0,0,0,359.447,257.8Z" transform="translate(-338.692 -246.867)"/><path class="a" d="M87.52,157.271a.388.388,0,0,0,.388-.388v-2.071a.388.388,0,0,0-.388-.388h-.443a.388.388,0,0,0,0,.776h.055v1.683A.388.388,0,0,0,87.52,157.271Z" transform="translate(-82.202 -148.864)"/><path class="a" d="M43.368,239.277a.388.388,0,0,0,.388-.388v-2.071a.388.388,0,0,0-.388-.388h-.443a.388.388,0,0,0,0,.776h.055v1.683A.388.388,0,0,0,43.368,239.277Z" transform="translate(-40.335 -226.626)"/><path class="a" d="M37.217,155.554V154.6a.987.987,0,0,0-1.974,0v.958a.987.987,0,1,0,1.974,0Zm-.776,0a.211.211,0,0,1-.421,0V154.6a.211.211,0,0,1,.421,0Z" transform="translate(-33.419 -148.091)"/><path class="a" d="M83.671,237.558a.987.987,0,0,0,1.974,0V236.6a.987.987,0,1,0-1.974,0Zm.776-.958a.211.211,0,0,1,.421,0v.958a.211.211,0,1,1-.421,0Z" transform="translate(-79.34 -225.851)"/><path class="a" d="M135.65,239.277a.388.388,0,0,0,.388-.388v-2.071a.388.388,0,0,0-.388-.388h-.443a.388.388,0,1,0,0,.776h.055v1.683A.388.388,0,0,0,135.65,239.277Z" transform="translate(-127.841 -226.626)"/><path class="a" d="M227.932,239.277a.388.388,0,0,0,.388-.388v-2.071a.388.388,0,0,0-.388-.388h-.443a.388.388,0,0,0,0,.776h.055v1.683A.388.388,0,0,0,227.932,239.277Z" transform="translate(-215.347 -226.626)"/><path class="a" d="M175.953,237.558a.987.987,0,0,0,1.974,0V236.6a.987.987,0,0,0-1.974,0Zm.776-.958a.211.211,0,0,1,.421,0v.958a.211.211,0,1,1-.421,0Z" transform="translate(-166.846 -225.851)"/><path class="a" d="M179.8,157.271a.388.388,0,0,0,.388-.388v-2.071a.388.388,0,0,0-.388-.388h-.443a.388.388,0,0,0,0,.776h.054v1.683A.388.388,0,0,0,179.8,157.271Z" transform="translate(-169.708 -148.864)"/><path class="a" d="M129.5,155.554V154.6a.987.987,0,0,0-1.974,0v.958a.987.987,0,1,0,1.974,0Zm-.776,0a.211.211,0,0,1-.421,0V154.6a.211.211,0,0,1,.421,0Z" transform="translate(-120.925 -148.091)"/><path class="a" d="M221.78,155.554V154.6a.987.987,0,0,0-1.974,0v.958a.987.987,0,1,0,1.974,0Zm-.776,0a.211.211,0,0,1-.421,0V154.6a.211.211,0,0,1,.421,0Z" transform="translate(-208.429 -148.091)"/><path class="a" d="M87.52,321.688a.388.388,0,0,0,.388-.388v-2.071a.388.388,0,0,0-.388-.388h-.443a.388.388,0,0,0,0,.776h.055V321.3A.388.388,0,0,0,87.52,321.688Z" transform="translate(-82.202 -304.771)"/><path class="a" d="M35.242,319.971a.987.987,0,0,0,1.974,0v-.958a.987.987,0,0,0-1.974,0Zm.776-.958a.211.211,0,0,1,.421,0v.958a.211.211,0,1,1-.421,0Z" transform="translate(-33.418 -303.998)"/><path class="a" d="M179.8,321.688a.388.388,0,0,0,.388-.388v-2.071a.388.388,0,0,0-.388-.388h-.443a.388.388,0,0,0,0,.776h.054V321.3A.388.388,0,0,0,179.8,321.688Z" transform="translate(-169.708 -304.771)"/><path class="a" d="M127.524,319.971a.987.987,0,0,0,1.974,0v-.958a.987.987,0,0,0-1.974,0Zm.776-.958a.211.211,0,0,1,.421,0v.958a.211.211,0,1,1-.421,0Z" transform="translate(-120.924 -303.998)"/><path class="a" d="M219.806,319.971a.987.987,0,0,0,1.974,0v-.958a.987.987,0,0,0-1.974,0Zm.776-.958a.211.211,0,0,1,.421,0v.958a.211.211,0,1,1-.421,0Z" transform="translate(-208.429 -303.998)"/></g></g></svg>