<svg xmlns="http://www.w3.org/2000/svg" width="26.129" height="31.858" viewBox="0 0 26.129 31.858"><defs><style>.a{fill:currentColor;}</style></defs><g transform="translate(-0.5)"><path class="a" d="M4.636,87.5a.466.466,0,0,0-.467-.467H1.433V84.171L3.7,85.7a.959.959,0,0,0,1.039,0L7,84.171v2.864H6.409a.467.467,0,0,0,0,.933h.744a.779.779,0,0,0,.778-.778V83.6a.779.779,0,0,0-.778-.778H1.278A.779.779,0,0,0,.5,83.6v3.589a.779.779,0,0,0,.778.778H4.169a.466.466,0,0,0,.467-.467Zm1.307-3.744L4.224,84.923H4.206L2.487,83.758Zm0,0" transform="translate(0 -77.671)"/><path class="a" d="M100.856,4.276h4.535a.779.779,0,0,0,.778-.778V.778A.779.779,0,0,0,105.391,0h-4.535a.779.779,0,0,0-.778.778V3.5A.779.779,0,0,0,100.856,4.276ZM104.182.933l-1.049.711h-.018L102.065.933Zm-3.17.413L102.6,2.426a.961.961,0,0,0,1.039,0l1.593-1.079v2h-4.224Zm0,0" transform="translate(-93.382)"/><path class="a" d="M240.3,473.578h1.928a.467.467,0,1,0,0-.933H240.3a.467.467,0,1,0,0,.933Zm0,0" transform="translate(-224.444 -443.236)"/><path class="a" d="M72.234,107.022a.466.466,0,0,0,.467-.467v-.933a.779.779,0,0,0-.778-.778H69.57V101.4a1.38,1.38,0,0,0-1.38-1.377H57.6a1.38,1.38,0,0,0-1.38,1.377v3.677H50.406a.779.779,0,0,0-.778.778v5.519a.779.779,0,0,0,.778.778h5.812v12.13a1.38,1.38,0,0,0,1.38,1.377H68.19a1.38,1.38,0,0,0,1.38-1.377v-9.774h2.353a.779.779,0,0,0,.778-.778V108.8a.467.467,0,0,0-.933,0v4.778h-5.3a1.508,1.508,0,0,0-.845.295l-2.117,1.681v-1.2a.779.779,0,0,0-.778-.778H61.355v-7.8H71.768v.778a.466.466,0,0,0,.467.467Zm-16.016,4.2H50.562v-4.794l3.751,2.542a.961.961,0,0,0,1.039,0l.867-.587v2.839Zm0-3.967-1.377.933h-.018l-3.208-2.174h4.6Zm12.418,17.03a.446.446,0,0,1-.447.444H57.6a.446.446,0,0,1-.447-.444v-1.475H68.637Zm0-19.437H61.2a.779.779,0,0,0-.778.778v8.107a.779.779,0,0,0,.778.778h1.373v1.7a.622.622,0,0,0,.335.583.562.562,0,0,0,.246.056.677.677,0,0,0,.419-.156L66.2,114.6a.617.617,0,0,1,.264-.092h2.169v7.366H57.152V101.4a.446.446,0,0,1,.447-.444H58.64l.28.878a1.346,1.346,0,0,0,1.238.9h.473a.467.467,0,0,0,0-.933h-.473a.427.427,0,0,1-.349-.254l-.19-.594h6.549l-.19.594a.426.426,0,0,1-.349.254h-2.7a.467.467,0,0,0,0,.933h2.7a1.346,1.346,0,0,0,1.238-.9l.28-.878H68.19a.446.446,0,0,1,.447.444Zm0,0" transform="translate(-46.072 -93.8)"/><path class="a" d="M264.287,210.5h-7.169a.467.467,0,1,0,0,.933h7.168a.467.467,0,0,0,0-.933Zm0,0" transform="translate(-240.213 -197.402)"/><path class="a" d="M264.287,235.48h-7.169a.467.467,0,0,0,0,.933h7.168a.467.467,0,0,0,0-.933Zm0,0" transform="translate(-240.213 -220.828)"/><path class="a" d="M264.754,260.928a.467.467,0,0,0-.467-.467h-7.169a.467.467,0,0,0,0,.933h7.168A.467.467,0,0,0,264.754,260.928Zm0,0" transform="translate(-240.213 -244.254)"/><path class="a" d="M257.119,285.441a.467.467,0,0,0,0,.933h3.7a.467.467,0,0,0,0-.933Zm0,0" transform="translate(-240.213 -267.68)"/><path class="a" d="M186.1,389.5a.779.779,0,0,0-.778.778v1.369a.779.779,0,0,0,.778.778h1.369a.779.779,0,0,0,.778-.778v-1.369a.779.779,0,0,0-.778-.778Zm1.213,1.991h-1.058v-1.058h1.058Zm0,0" transform="translate(-173.324 -365.264)"/><path class="a" d="M240.1,392.424h1.369a.779.779,0,0,0,.778-.778v-1.369a.779.779,0,0,0-.778-.778H240.1a.779.779,0,0,0-.778.778v1.369A.779.779,0,0,0,240.1,392.424Zm.156-1.991h1.058v1.058h-1.058Zm0,0" transform="translate(-223.964 -365.264)"/><path class="a" d="M294.1,392.424h1.369a.779.779,0,0,0,.778-.778v-1.369a.779.779,0,0,0-.778-.778H294.1a.779.779,0,0,0-.778.778v1.369A.779.779,0,0,0,294.1,392.424Zm.156-1.991h1.058v1.058h-1.058Zm0,0" transform="translate(-274.604 -365.264)"/></g></svg>