<svg xmlns="http://www.w3.org/2000/svg" width="24.138" height="24.138" viewBox="0 0 24.138 24.138"><defs><style>.a{fill:currentColor;}</style></defs><g transform="translate(4.748 8.081)"><path class="a" d="M101.509,171.558a.471.471,0,1,0,0,.667A.472.472,0,0,0,101.509,171.558Z" transform="translate(-100.704 -171.42)"/></g><g transform="translate(0 18.48)"><path class="a" d="M11.937,394.614a1.65,1.65,0,0,0-1.33-2.627H2.593a1.649,1.649,0,0,0-1.329,2.627A2.359,2.359,0,0,0,0,396.7v.471a.471.471,0,0,0,.471.471H12.729a.471.471,0,0,0,.471-.471V396.7A2.359,2.359,0,0,0,11.937,394.614Zm-9.844-1.478a.7.7,0,0,1,.5-.207h8.014a.707.707,0,1,1,0,1.414H2.593a.707.707,0,0,1-.5-1.207ZM.943,396.7a1.416,1.416,0,0,1,1.414-1.414h8.486a1.416,1.416,0,0,1,1.414,1.414Z" transform="translate(0 -391.987)"/></g><g transform="translate(0.001 0)"><path class="a" d="M23.719,19.807a2.969,2.969,0,0,0-.568-.652l-2.2-1.921a.468.468,0,0,0-.188-.164l-1.332-1.162L13.263,10.53a1.412,1.412,0,0,0-.414-2.252l.57-.57a1.887,1.887,0,0,0,1.82-.487,1.885,1.885,0,0,0,0-2.667l-4-4a1.885,1.885,0,0,0-3.154,1.82L2.394,8.065A1.9,1.9,0,0,0,1.906,8,1.885,1.885,0,0,0,.572,11.221l4,4A1.885,1.885,0,0,0,7.727,13.4l.569-.569a1.415,1.415,0,0,0,2.252.413l6.568,7.546a.474.474,0,0,0,.064.08l.026.024,1.957,2.249c.049.057.1.114.155.168a2.8,2.8,0,0,0,1.993.829,2.894,2.894,0,0,0,.4-.027,2.853,2.853,0,0,0,2.1-1.457A2.79,2.79,0,0,0,23.719,19.807ZM9.239,1.22a.943.943,0,0,1,1.333,0l4,4A.943.943,0,0,1,13.24,6.554l-4-4h0A.944.944,0,0,1,9.239,1.22ZM6.573,14.554a.944.944,0,0,1-1.334,0l-4-4A.943.943,0,0,1,2.572,9.22l4,4A.944.944,0,0,1,6.573,14.554Zm1.985-3.318L7.239,12.554l-4-4L8.573,3.22l4,4L11.252,8.541l-.013.012L8.574,11.219Zm1.683.983,0,0-.332.332a.472.472,0,0,1-.673-.661l2.678-2.678a.471.471,0,0,1,.8.339.467.467,0,0,1-.138.333l-.33.33-.007.007Zm.976.357L12.6,11.2l5.834,5.089L16.3,18.416Zm5.7,6.552,2.22-2.221.712.621-2.312,2.312Zm6.069,3.065a1.918,1.918,0,0,1-1.411.984,1.873,1.873,0,0,1-1.594-.534c-.036-.036-.071-.074-.1-.112l0-.005-1.715-1.971,2.4-2.4,1.968,1.717,0,0a2.029,2.029,0,0,1,.389.448A1.861,1.861,0,0,1,22.99,22.194Z" transform="translate(-0.021 -0.001)"/></g><g transform="translate(6.081 4.748)"><path class="a" d="M131.79,100.845a.471.471,0,0,0-.667,0l-2,2a.471.471,0,0,0,.667.667l2-2A.471.471,0,0,0,131.79,100.845Z" transform="translate(-128.985 -100.707)"/></g></svg>