<svg xmlns="http://www.w3.org/2000/svg" width="26.142" height="22.353" viewBox="0 0 26.142 22.353"><defs><style>.a{fill:currentColor;}</style></defs><path class="a" d="M25.754,13.905,22.772,7.518l1.287.369a.532.532,0,0,0,.294-1.024L15.4,4.3c0-.038,0-.077,0-.115a2.334,2.334,0,0,0-4.372-1.139L2.083.473A.532.532,0,1,0,1.79,1.5L3.556,2,.357,8.856a.533.533,0,0,0-.357.5,4.27,4.27,0,0,0,7.3,3.014A4.22,4.22,0,0,0,8.569,9.358a.533.533,0,0,0-.388-.512L5.208,2.478,10.74,4.065c0,.038,0,.077,0,.115a2.338,2.338,0,0,0,1.8,2.272V17h-1.47a2.14,2.14,0,0,0-2.151,2.117v.309a2.146,2.146,0,0,0-1.7,2.087v.746a.562.562,0,0,0,.554.545H18.376a.562.562,0,0,0,.554-.545v-.746a2.146,2.146,0,0,0-1.7-2.087v-.309A2.14,2.14,0,0,0,15.074,17H13.6V6.453a2.343,2.343,0,0,0,1.5-1.134l6.028,1.73L17.93,13.915a.533.533,0,0,0-.357.5,4.27,4.27,0,0,0,7.3,3.014,4.221,4.221,0,0,0,1.274-3.014.533.533,0,0,0-.388-.512ZM4.271,2.964,7,8.8H1.547Zm0,9.575A3.184,3.184,0,0,1,1.11,9.865H7.457a3.231,3.231,0,0,1-3.186,2.673Zm13.593,8.976v.226H8.279v-.226a1.074,1.074,0,0,1,1.086-1.052h7.413a1.074,1.074,0,0,1,1.086,1.052Zm-1.7-2.4V19.4H9.983v-.279a1.074,1.074,0,0,1,1.086-1.052h4a1.074,1.074,0,0,1,1.086,1.052ZM13.071,5.45a1.27,1.27,0,1,1,1.234-.972.535.535,0,0,0-.03.1,1.271,1.271,0,0,1-1.2.868Zm11.5,8.41H19.12l2.725-5.836ZM21.845,17.6a3.184,3.184,0,0,1-3.162-2.673h6.348A3.231,3.231,0,0,1,21.845,17.6Zm0,0" transform="translate(0 -0.452)"/></svg>