<svg xmlns="http://www.w3.org/2000/svg" width="21.432" height="25.718" viewBox="0 0 21.432 25.718"><defs><style>.a{fill:currentColor;}</style></defs><g transform="translate(-2)"><path class="a" d="M20.753,25.718H4.679A2.683,2.683,0,0,1,2,23.039V2.679A2.683,2.683,0,0,1,4.679,0H20.753a2.683,2.683,0,0,1,2.679,2.679v20.36A2.683,2.683,0,0,1,20.753,25.718ZM4.679,1.072A1.609,1.609,0,0,0,3.072,2.679v20.36a1.609,1.609,0,0,0,1.607,1.607H20.753a1.609,1.609,0,0,0,1.607-1.607V2.679a1.609,1.609,0,0,0-1.607-1.607Z"/><path class="a" d="M18.679,12.072H16.536a.536.536,0,1,1,0-1.072h2.143a.536.536,0,1,1,0,1.072Z" transform="translate(1.002 0.787)"/><path class="a" d="M18.679,9.072H16.536a.536.536,0,1,1,0-1.072h2.143a.536.536,0,1,1,0,1.072Z" transform="translate(1.002 0.573)"/><path class="a" d="M18.679,15.072H16.536a.536.536,0,1,1,0-1.072h2.143a.536.536,0,1,1,0,1.072Z" transform="translate(1.002 1.002)"/><path class="a" d="M18.679,18.072H16.536a.536.536,0,1,1,0-1.072h2.143a.536.536,0,1,1,0,1.072Z" transform="translate(1.002 1.217)"/><path class="a" d="M19.466,21.072H5.536a.536.536,0,1,1,0-1.072H19.466a.536.536,0,1,1,0,1.072Z" transform="translate(0.215 1.432)"/><path class="a" d="M10.358,18.716a5.358,5.358,0,1,1,5.358-5.358A5.364,5.364,0,0,1,10.358,18.716Zm0-9.644a4.286,4.286,0,1,0,4.286,4.286A4.291,4.291,0,0,0,10.358,9.072Z" transform="translate(0.215 0.573)"/><path class="a" d="M6.854,17.3a.535.535,0,0,1-.379-.914l3.253-3.253v-4.6a.536.536,0,1,1,1.072,0v4.822a.54.54,0,0,1-.156.379l-3.41,3.41A.538.538,0,0,1,6.854,17.3Z" transform="translate(0.309 0.573)"/></g></svg>