<svg xmlns="http://www.w3.org/2000/svg" width="26.129" height="23.476" viewBox="0 0 26.129 23.476"><defs><style>.a{fill:currentColor;}</style></defs><g transform="translate(0 -26.001)"><g transform="translate(18.86 44.242)"><path class="a" d="M371.469,383.528a.51.51,0,0,0-.71.129,5.786,5.786,0,0,1-.524.649,6.215,6.215,0,0,1-.5.469.51.51,0,1,0,.662.777,7.142,7.142,0,0,0,.584-.55,6.787,6.787,0,0,0,.617-.764A.51.51,0,0,0,371.469,383.528Z" transform="translate(-369.556 -383.437)"/></g><g transform="translate(17.55 46.328)"><path class="a" d="M344.9,424.6a.51.51,0,0,0-.679-.245l-.016.007a.51.51,0,1,0,.412.934l.037-.017A.51.51,0,0,0,344.9,424.6Z" transform="translate(-343.896 -424.302)"/></g><g transform="translate(0 26.001)"><g transform="translate(0 0)"><path class="a" d="M24.6,26H1.525A1.526,1.526,0,0,0,0,27.526v14.3a1.526,1.526,0,0,0,1.525,1.525H12.272a8.53,8.53,0,0,0,2.386,4.167,6.67,6.67,0,0,0,3.4,1.957,6.671,6.671,0,0,0,3.4-1.957,8.53,8.53,0,0,0,2.386-4.167H24.6a1.526,1.526,0,0,0,1.525-1.525v-14.3A1.526,1.526,0,0,0,24.6,26Zm-1.537,15.26a7.533,7.533,0,0,1-2.282,5.5,6.391,6.391,0,0,1-2.724,1.7,6.39,6.39,0,0,1-2.724-1.7,7.534,7.534,0,0,1-2.282-5.5V38.748a22.841,22.841,0,0,0,5.007-2.118,23.633,23.633,0,0,0,5.006,2.117Zm2.041.567a.5.5,0,0,1-.5.5h-.577a9.416,9.416,0,0,0,.061-1.071v-2.9a.51.51,0,0,0-.377-.492A22.513,22.513,0,0,1,18.319,35.6a.51.51,0,0,0-.516,0,21.9,21.9,0,0,1-5.393,2.268.51.51,0,0,0-.377.492v2.9a9.4,9.4,0,0,0,.061,1.071H1.525a.5.5,0,0,1-.5-.5V33.146H25.109Zm0-9.7H1.021V30.084H25.109Zm0-3.062H1.021V27.526a.5.5,0,0,1,.5-.5H24.6a.5.5,0,0,1,.5.5Z" transform="translate(0 -26.001)"/></g></g><g transform="translate(2.041 36.718)"><path class="a" d="M44.084,236a2.3,2.3,0,0,0-.893.181,2.3,2.3,0,1,0,0,4.231A2.3,2.3,0,1,0,44.084,236ZM42.3,239.575a1.276,1.276,0,1,1,1.276-1.276A1.277,1.277,0,0,1,42.3,239.575Zm1.912-.006a2.291,2.291,0,0,0,0-2.539,1.276,1.276,0,0,1,0,2.539Z" transform="translate(-40.001 -236.003)"/></g><g transform="translate(2.041 34.422)"><path class="a" d="M43.134,191H40.509a.51.51,0,1,0,0,1.021h2.625a.51.51,0,1,0,0-1.021Z" transform="translate(-39.999 -191.001)"/></g><g transform="translate(6.151 34.422)"><path class="a" d="M121.057,191h-.024a.51.51,0,1,0,0,1.021h.024a.51.51,0,1,0,0-1.021Z" transform="translate(-120.522 -191.001)"/></g><g transform="translate(15.11 39.938)"><g transform="translate(0 0)"><path class="a" d="M301.829,299.247a.51.51,0,0,0-.722,0l-2.729,2.729-1.43-1.43a.51.51,0,1,0-.722.722l1.791,1.791a.51.51,0,0,0,.722,0l3.09-3.09A.51.51,0,0,0,301.829,299.247Z" transform="translate(-296.077 -299.098)"/></g></g></g></svg>