<svg xmlns="http://www.w3.org/2000/svg" width="26.129" height="26.129" viewBox="0 0 26.129 26.129"><defs><style>.a{fill:currentColor;}</style></defs><g transform="translate(-2 -2)"><path class="a" d="M26.823,12.452H16.807v-.435a.435.435,0,0,0-.435-.435H15.065V10.71H19.42A2.616,2.616,0,0,0,22.033,8.1V6.79a.435.435,0,0,0-.435-.435H17.678V4.613A2.616,2.616,0,0,0,15.065,2H5.919A2.18,2.18,0,0,0,3.742,4.177V7.269A2.181,2.181,0,0,0,2,9.4V25.952a2.18,2.18,0,0,0,2.177,2.177h8.71a2.18,2.18,0,0,0,2.177-2.177V23.774h1.306a.435.435,0,0,0,.435-.435V22.9H26.823A1.306,1.306,0,0,0,28.129,21.6V13.758a1.306,1.306,0,0,0-1.306-1.306ZM21.162,8.1a1.742,1.742,0,1,1-3.484,0V7.226h3.484ZM4.613,4.177A1.306,1.306,0,0,1,5.919,2.871h7.2a2.6,2.6,0,0,0-.667,1.742v6.1H4.613Zm9.581,21.774a1.306,1.306,0,0,1-1.306,1.306H4.177a1.306,1.306,0,0,1-1.306-1.306V9.4a1.306,1.306,0,0,1,.871-1.226v2.968a.435.435,0,0,0,.435.435h8.71a.435.435,0,0,0,.435-.435V8.177A1.306,1.306,0,0,1,14.194,9.4ZM13.323,7.269V4.613a1.742,1.742,0,0,1,3.484,0V8.1a2.6,2.6,0,0,0,.671,1.742H15.065V9.4a2.181,2.181,0,0,0-1.742-2.134ZM15.936,22.9h-.871V12.452h.871Zm10.887-9.581a.435.435,0,0,1,.435.435v1.306H16.807V13.323Zm0,8.71H16.807v-6.1H27.258V21.6A.435.435,0,0,1,26.823,22.033Z"/><path class="a" d="M8.177,36H6.435A.435.435,0,0,0,6,36.435v1.742a.435.435,0,0,0,.435.435H8.177a.435.435,0,0,0,.435-.435V36.435A.435.435,0,0,0,8.177,36Zm-.435,1.742H6.871v-.871h.871Z" transform="translate(-2.258 -19.193)"/><path class="a" d="M16.177,36H14.435a.435.435,0,0,0-.435.435v1.742a.435.435,0,0,0,.435.435h1.742a.435.435,0,0,0,.435-.435V36.435A.435.435,0,0,0,16.177,36Zm-.435,1.742h-.871v-.871h.871Z" transform="translate(-6.774 -19.193)"/><path class="a" d="M24.177,36H22.435a.435.435,0,0,0-.435.435v1.742a.435.435,0,0,0,.435.435h1.742a.435.435,0,0,0,.435-.435V36.435A.435.435,0,0,0,24.177,36Zm-.435,1.742h-.871v-.871h.871Z" transform="translate(-11.29 -19.193)"/><path class="a" d="M8.177,44H6.435A.435.435,0,0,0,6,44.435v1.742a.435.435,0,0,0,.435.435H8.177a.435.435,0,0,0,.435-.435V44.435A.435.435,0,0,0,8.177,44Zm-.435,1.742H6.871v-.871h.871Z" transform="translate(-2.258 -23.709)"/><path class="a" d="M16.177,44H14.435a.435.435,0,0,0-.435.435v1.742a.435.435,0,0,0,.435.435h1.742a.435.435,0,0,0,.435-.435V44.435A.435.435,0,0,0,16.177,44Zm-.435,1.742h-.871v-.871h.871Z" transform="translate(-6.774 -23.709)"/><path class="a" d="M24.177,44H22.435a.435.435,0,0,0-.435.435v1.742a.435.435,0,0,0,.435.435h1.742a.435.435,0,0,0,.435-.435V44.435A.435.435,0,0,0,24.177,44Zm-.435,1.742h-.871v-.871h.871Z" transform="translate(-11.29 -23.709)"/><path class="a" d="M8.177,52H6.435A.435.435,0,0,0,6,52.435v1.742a.435.435,0,0,0,.435.435H8.177a.435.435,0,0,0,.435-.435V52.435A.435.435,0,0,0,8.177,52Zm-.435,1.742H6.871v-.871h.871Z" transform="translate(-2.258 -28.226)"/><path class="a" d="M16.177,52H14.435a.435.435,0,0,0-.435.435v1.742a.435.435,0,0,0,.435.435h1.742a.435.435,0,0,0,.435-.435V52.435A.435.435,0,0,0,16.177,52Zm-.435,1.742h-.871v-.871h.871Z" transform="translate(-6.774 -28.226)"/><path class="a" d="M24.177,52H22.435a.435.435,0,0,0-.435.435v1.742a.435.435,0,0,0,.435.435h1.742a.435.435,0,0,0,.435-.435V52.435A.435.435,0,0,0,24.177,52Zm-.435,1.742h-.871v-.871h.871Z" transform="translate(-11.29 -28.226)"/><path class="a" d="M15.145,28H6.435A.435.435,0,0,0,6,28.435v1.742a.435.435,0,0,0,.435.435h8.71a.435.435,0,0,0,.435-.435V28.435A.435.435,0,0,0,15.145,28Zm-.435,1.742H6.871v-.871H14.71Z" transform="translate(-2.258 -14.677)"/><path class="a" d="M51.038,40a1.3,1.3,0,0,0-.871.34,1.306,1.306,0,1,0,0,1.934A1.306,1.306,0,1,0,51.038,40ZM49.3,41.742a.435.435,0,1,1,.435-.435A.435.435,0,0,1,49.3,41.742Zm1.742,0a.435.435,0,1,1,.435-.435A.435.435,0,0,1,51.038,41.742Z" transform="translate(-25.957 -21.451)"/><path class="a" d="M10,8h.871v.871H10Z" transform="translate(-4.516 -3.387)"/><path class="a" d="M14,8h4.355v.871H14Z" transform="translate(-6.774 -3.387)"/><path class="a" d="M10,12h6.1v.871H10Z" transform="translate(-4.516 -5.645)"/><path class="a" d="M10,16h6.1v.871H10Z" transform="translate(-4.516 -7.903)"/></g></svg>